<mxfile type="device" compressed="false">
    <diagram id="Structure" name="Structure">
      <mxGraphModel dx="1360" dy="864" grid="1" gridSize="10" guides="1" tooltips="1" connect="1" arrows="1" fold="1" page="1" pageScale="1" pageWidth="827" pageHeight="1169" math="0" shadow="1">
        <root>
          <mxCell id="0" />   
          <mxCell id="1" parent="0" />
        <object id="139811033649456" label="⊕">
      <mxCell style="rounded=1;whiteSpace=wrap;html=1;" vertex="1" parent="1">
          <mxGeometry x="200" y="150" width="120" height="60" as="geometry" />
      </mxCell>
    </object><object id="139811033650128" label="⊗">
      <mxCell style="rounded=1;whiteSpace=wrap;html=1;" vertex="1" parent="1">
          <mxGeometry x="200" y="150" width="120" height="60" as="geometry" />
      </mxCell>
    </object><object id="139811033505552" label="⊕">
      <mxCell style="rounded=1;whiteSpace=wrap;html=1;" vertex="1" parent="1">
          <mxGeometry x="200" y="150" width="120" height="60" as="geometry" />
      </mxCell>
    </object><object id="139811033555152" label="U([13.99,106.2))">
      <mxCell style="rounded=1;whiteSpace=wrap;html=1;" vertex="1" parent="1">
          <mxGeometry x="200" y="150" width="120" height="60" as="geometry" />
      </mxCell>
    </object><object id="139811033555056" label="U([106.2,139.2))">
      <mxCell style="rounded=1;whiteSpace=wrap;html=1;" vertex="1" parent="1">
          <mxGeometry x="200" y="150" width="120" height="60" as="geometry" />
      </mxCell>
    </object><object id="139811033555392" label="U([139.2,542.2])">
      <mxCell style="rounded=1;whiteSpace=wrap;html=1;" vertex="1" parent="1">
          <mxGeometry x="200" y="150" width="120" height="60" as="geometry" />
      </mxCell>
    </object><object id="139811033556640" label="⊕">
      <mxCell style="rounded=1;whiteSpace=wrap;html=1;" vertex="1" parent="1">
          <mxGeometry x="200" y="150" width="120" height="60" as="geometry" />
      </mxCell>
    </object><object id="139811033556688" label="U([0.008422,0.040955))">
      <mxCell style="rounded=1;whiteSpace=wrap;html=1;" vertex="1" parent="1">
          <mxGeometry x="200" y="150" width="120" height="60" as="geometry" />
      </mxCell>
    </object><object id="139811033555296" label="U([0.040955,0.061855))">
      <mxCell style="rounded=1;whiteSpace=wrap;html=1;" vertex="1" parent="1">
          <mxGeometry x="200" y="150" width="120" height="60" as="geometry" />
      </mxCell>
    </object><object id="139811033556304" label="U([0.061855,0.1354])">
      <mxCell style="rounded=1;whiteSpace=wrap;html=1;" vertex="1" parent="1">
          <mxGeometry x="200" y="150" width="120" height="60" as="geometry" />
      </mxCell>
    </object><object id="139811033557744" label="⊕">
      <mxCell style="rounded=1;whiteSpace=wrap;html=1;" vertex="1" parent="1">
          <mxGeometry x="200" y="150" width="120" height="60" as="geometry" />
      </mxCell>
    </object><object id="139811033557360" label="U([0.005174,0.008993500000000001))">
      <mxCell style="rounded=1;whiteSpace=wrap;html=1;" vertex="1" parent="1">
          <mxGeometry x="200" y="150" width="120" height="60" as="geometry" />
      </mxCell>
    </object><object id="139811033557504" label="U([0.008993500000000001,0.019264999999999997))">
      <mxCell style="rounded=1;whiteSpace=wrap;html=1;" vertex="1" parent="1">
          <mxGeometry x="200" y="150" width="120" height="60" as="geometry" />
      </mxCell>
    </object><object id="139811033557456" label="U([0.019264999999999997,0.025955))">
      <mxCell style="rounded=1;whiteSpace=wrap;html=1;" vertex="1" parent="1">
          <mxGeometry x="200" y="150" width="120" height="60" as="geometry" />
      </mxCell>
    </object><object id="139811033557552" label="U([0.025955,0.0409])">
      <mxCell style="rounded=1;whiteSpace=wrap;html=1;" vertex="1" parent="1">
          <mxGeometry x="200" y="150" width="120" height="60" as="geometry" />
      </mxCell>
    </object><object id="139811033558992" label="⊕">
      <mxCell style="rounded=1;whiteSpace=wrap;html=1;" vertex="1" parent="1">
          <mxGeometry x="200" y="150" width="120" height="60" as="geometry" />
      </mxCell>
    </object><object id="139811033149696" label="U([0.01101,0.05709))">
      <mxCell style="rounded=1;whiteSpace=wrap;html=1;" vertex="1" parent="1">
          <mxGeometry x="200" y="150" width="120" height="60" as="geometry" />
      </mxCell>
    </object><object id="139811033149504" label="U([0.05709,0.081555))">
      <mxCell style="rounded=1;whiteSpace=wrap;html=1;" vertex="1" parent="1">
          <mxGeometry x="200" y="150" width="120" height="60" as="geometry" />
      </mxCell>
    </object><object id="139811033149888" label="U([0.081555,0.1438])">
      <mxCell style="rounded=1;whiteSpace=wrap;html=1;" vertex="1" parent="1">
          <mxGeometry x="200" y="150" width="120" height="60" as="geometry" />
      </mxCell>
    </object><object id="139811033151184" label="⊕">
      <mxCell style="rounded=1;whiteSpace=wrap;html=1;" vertex="1" parent="1">
          <mxGeometry x="200" y="150" width="120" height="60" as="geometry" />
      </mxCell>
    </object><object id="139811033150896" label="U([0.001087,0.0062695))">
      <mxCell style="rounded=1;whiteSpace=wrap;html=1;" vertex="1" parent="1">
          <mxGeometry x="200" y="150" width="120" height="60" as="geometry" />
      </mxCell>
    </object><object id="139811033150848" label="U([0.0062695,0.01284])">
      <mxCell style="rounded=1;whiteSpace=wrap;html=1;" vertex="1" parent="1">
          <mxGeometry x="200" y="150" width="120" height="60" as="geometry" />
      </mxCell>
    </object><object id="139811033505648" label="Nominal('friendly', 'malignant')">
      <mxCell style="rounded=1;whiteSpace=wrap;html=1;" vertex="1" parent="1">
          <mxGeometry x="200" y="150" width="120" height="60" as="geometry" />
      </mxCell>
    </object><object id="139811033556928" label="⊕">
      <mxCell style="rounded=1;whiteSpace=wrap;html=1;" vertex="1" parent="1">
          <mxGeometry x="200" y="150" width="120" height="60" as="geometry" />
      </mxCell>
    </object><object id="139811033557024" label="U([361.6,1330.5))">
      <mxCell style="rounded=1;whiteSpace=wrap;html=1;" vertex="1" parent="1">
          <mxGeometry x="200" y="150" width="120" height="60" as="geometry" />
      </mxCell>
    </object><object id="139811033556976" label="U([1330.5,1500.0))">
      <mxCell style="rounded=1;whiteSpace=wrap;html=1;" vertex="1" parent="1">
          <mxGeometry x="200" y="150" width="120" height="60" as="geometry" />
      </mxCell>
    </object><object id="139811033557120" label="U([1500.0,2501.0])">
      <mxCell style="rounded=1;whiteSpace=wrap;html=1;" vertex="1" parent="1">
          <mxGeometry x="200" y="150" width="120" height="60" as="geometry" />
      </mxCell>
    </object><object id="139811033555920" label="⊕">
      <mxCell style="rounded=1;whiteSpace=wrap;html=1;" vertex="1" parent="1">
          <mxGeometry x="200" y="150" width="120" height="60" as="geometry" />
      </mxCell>
    </object><object id="139811033150368" label="U([0.04605,0.10225000000000001))">
      <mxCell style="rounded=1;whiteSpace=wrap;html=1;" vertex="1" parent="1">
          <mxGeometry x="200" y="150" width="120" height="60" as="geometry" />
      </mxCell>
    </object><object id="139811033150464" label="U([0.2015,0.24355))">
      <mxCell style="rounded=1;whiteSpace=wrap;html=1;" vertex="1" parent="1">
          <mxGeometry x="200" y="150" width="120" height="60" as="geometry" />
      </mxCell>
    </object><object id="139811033150704" label="U([0.24355,0.3454])">
      <mxCell style="rounded=1;whiteSpace=wrap;html=1;" vertex="1" parent="1">
          <mxGeometry x="200" y="150" width="120" height="60" as="geometry" />
      </mxCell>
    </object><object id="139811033152048" label="U([0.13235,0.2015))">
      <mxCell style="rounded=1;whiteSpace=wrap;html=1;" vertex="1" parent="1">
          <mxGeometry x="200" y="150" width="120" height="60" as="geometry" />
      </mxCell>
    </object><object id="139811033150512" label="U([0.10225000000000001,0.12645))">
      <mxCell style="rounded=1;whiteSpace=wrap;html=1;" vertex="1" parent="1">
          <mxGeometry x="200" y="150" width="120" height="60" as="geometry" />
      </mxCell>
    </object><object id="139811033152480" label="U([0.12645,0.13235))">
      <mxCell style="rounded=1;whiteSpace=wrap;html=1;" vertex="1" parent="1">
          <mxGeometry x="200" y="150" width="120" height="60" as="geometry" />
      </mxCell>
    </object><object id="139811033153008" label="⊕">
      <mxCell style="rounded=1;whiteSpace=wrap;html=1;" vertex="1" parent="1">
          <mxGeometry x="200" y="150" width="120" height="60" as="geometry" />
      </mxCell>
    </object><object id="139811033182416" label="U([0.02031,0.051254999999999995))">
      <mxCell style="rounded=1;whiteSpace=wrap;html=1;" vertex="1" parent="1">
          <mxGeometry x="200" y="150" width="120" height="60" as="geometry" />
      </mxCell>
    </object><object id="139811033182320" label="U([0.051254999999999995,0.11))">
      <mxCell style="rounded=1;whiteSpace=wrap;html=1;" vertex="1" parent="1">
          <mxGeometry x="200" y="150" width="120" height="60" as="geometry" />
      </mxCell>
    </object><object id="139811033182272" label="U([0.11,0.1512))">
      <mxCell style="rounded=1;whiteSpace=wrap;html=1;" vertex="1" parent="1">
          <mxGeometry x="200" y="150" width="120" height="60" as="geometry" />
      </mxCell>
    </object><object id="139811033182656" label="U([0.1512,0.2012])">
      <mxCell style="rounded=1;whiteSpace=wrap;html=1;" vertex="1" parent="1">
          <mxGeometry x="200" y="150" width="120" height="60" as="geometry" />
      </mxCell>
    </object><object id="139811033184000" label="⊕">
      <mxCell style="rounded=1;whiteSpace=wrap;html=1;" vertex="1" parent="1">
          <mxGeometry x="200" y="150" width="120" height="60" as="geometry" />
      </mxCell>
    </object><object id="139811033184096" label="U([0.090515,0.23145))">
      <mxCell style="rounded=1;whiteSpace=wrap;html=1;" vertex="1" parent="1">
          <mxGeometry x="200" y="150" width="120" height="60" as="geometry" />
      </mxCell>
    </object><object id="139811033184048" label="U([0.23145,0.26385000000000003))">
      <mxCell style="rounded=1;whiteSpace=wrap;html=1;" vertex="1" parent="1">
          <mxGeometry x="200" y="150" width="120" height="60" as="geometry" />
      </mxCell>
    </object><object id="139811033184144" label="U([0.26385000000000003,0.4268])">
      <mxCell style="rounded=1;whiteSpace=wrap;html=1;" vertex="1" parent="1">
          <mxGeometry x="200" y="150" width="120" height="60" as="geometry" />
      </mxCell>
    </object><object id="139811033183808" label="U([0.02398,0.07344))">
      <mxCell style="rounded=1;whiteSpace=wrap;html=1;" vertex="1" parent="1">
          <mxGeometry x="200" y="150" width="120" height="60" as="geometry" />
      </mxCell>
    </object><object id="139811033184192" label="U([0.07344,0.090515))">
      <mxCell style="rounded=1;whiteSpace=wrap;html=1;" vertex="1" parent="1">
          <mxGeometry x="200" y="150" width="120" height="60" as="geometry" />
      </mxCell>
    </object><object id="139811033185920" label="⊕">
      <mxCell style="rounded=1;whiteSpace=wrap;html=1;" vertex="1" parent="1">
          <mxGeometry x="200" y="150" width="120" height="60" as="geometry" />
      </mxCell>
    </object><object id="139811033185632" label="U([0.04996,0.069305))">
      <mxCell style="rounded=1;whiteSpace=wrap;html=1;" vertex="1" parent="1">
          <mxGeometry x="200" y="150" width="120" height="60" as="geometry" />
      </mxCell>
    </object><object id="139811033186016" label="U([0.069305,0.076475))">
      <mxCell style="rounded=1;whiteSpace=wrap;html=1;" vertex="1" parent="1">
          <mxGeometry x="200" y="150" width="120" height="60" as="geometry" />
      </mxCell>
    </object><object id="139811033185728" label="U([0.076475,0.09744])">
      <mxCell style="rounded=1;whiteSpace=wrap;html=1;" vertex="1" parent="1">
          <mxGeometry x="200" y="150" width="120" height="60" as="geometry" />
      </mxCell>
    </object><object id="139811033186160" label="⊕">
      <mxCell style="rounded=1;whiteSpace=wrap;html=1;" vertex="1" parent="1">
          <mxGeometry x="200" y="150" width="120" height="60" as="geometry" />
      </mxCell>
    </object><object id="139811033219760" label="U([71.9,85.34))">
      <mxCell style="rounded=1;whiteSpace=wrap;html=1;" vertex="1" parent="1">
          <mxGeometry x="200" y="150" width="120" height="60" as="geometry" />
      </mxCell>
    </object><object id="139811033219904" label="U([85.34,138.5))">
      <mxCell style="rounded=1;whiteSpace=wrap;html=1;" vertex="1" parent="1">
          <mxGeometry x="200" y="150" width="120" height="60" as="geometry" />
      </mxCell>
    </object><object id="139811033219856" label="U([138.5,153.15))">
      <mxCell style="rounded=1;whiteSpace=wrap;html=1;" vertex="1" parent="1">
          <mxGeometry x="200" y="150" width="120" height="60" as="geometry" />
      </mxCell>
    </object><object id="139811033219952" label="U([153.15,188.5])">
      <mxCell style="rounded=1;whiteSpace=wrap;html=1;" vertex="1" parent="1">
          <mxGeometry x="200" y="150" width="120" height="60" as="geometry" />
      </mxCell>
    </object><object id="139811033221584" label="⊕">
      <mxCell style="rounded=1;whiteSpace=wrap;html=1;" vertex="1" parent="1">
          <mxGeometry x="200" y="150" width="120" height="60" as="geometry" />
      </mxCell>
    </object><object id="139811033221344" label="U([10.95,13.415))">
      <mxCell style="rounded=1;whiteSpace=wrap;html=1;" vertex="1" parent="1">
          <mxGeometry x="200" y="150" width="120" height="60" as="geometry" />
      </mxCell>
    </object><object id="139811033221680" label="U([13.415,21.130000000000003))">
      <mxCell style="rounded=1;whiteSpace=wrap;html=1;" vertex="1" parent="1">
          <mxGeometry x="200" y="150" width="120" height="60" as="geometry" />
      </mxCell>
    </object><object id="139811033221632" label="U([21.130000000000003,23.240000000000002))">
      <mxCell style="rounded=1;whiteSpace=wrap;html=1;" vertex="1" parent="1">
          <mxGeometry x="200" y="150" width="120" height="60" as="geometry" />
      </mxCell>
    </object><object id="139811033221728" label="U([23.240000000000002,28.11])">
      <mxCell style="rounded=1;whiteSpace=wrap;html=1;" vertex="1" parent="1">
          <mxGeometry x="200" y="150" width="120" height="60" as="geometry" />
      </mxCell>
    </object><object id="139811033223024" label="⊕">
      <mxCell style="rounded=1;whiteSpace=wrap;html=1;" vertex="1" parent="1">
          <mxGeometry x="200" y="150" width="120" height="60" as="geometry" />
      </mxCell>
    </object><object id="139811033219808" label="U([0.11875,0.1447])">
      <mxCell style="rounded=1;whiteSpace=wrap;html=1;" vertex="1" parent="1">
          <mxGeometry x="200" y="150" width="120" height="60" as="geometry" />
      </mxCell>
    </object><object id="139811033222976" label="U([0.08860000000000001,0.11875))">
      <mxCell style="rounded=1;whiteSpace=wrap;html=1;" vertex="1" parent="1">
          <mxGeometry x="200" y="150" width="120" height="60" as="geometry" />
      </mxCell>
    </object><object id="139811033222928" label="U([0.07371,0.08378))">
      <mxCell style="rounded=1;whiteSpace=wrap;html=1;" vertex="1" parent="1">
          <mxGeometry x="200" y="150" width="120" height="60" as="geometry" />
      </mxCell>
    </object><object id="139811033221008" label="U([0.08378,0.08860000000000001))">
      <mxCell style="rounded=1;whiteSpace=wrap;html=1;" vertex="1" parent="1">
          <mxGeometry x="200" y="150" width="120" height="60" as="geometry" />
      </mxCell>
    </object><object id="139811033219280" label="⊕">
      <mxCell style="rounded=1;whiteSpace=wrap;html=1;" vertex="1" parent="1">
          <mxGeometry x="200" y="150" width="120" height="60" as="geometry" />
      </mxCell>
    </object><object id="139811033184672" label="U([0.17149999999999999,0.22035))">
      <mxCell style="rounded=1;whiteSpace=wrap;html=1;" vertex="1" parent="1">
          <mxGeometry x="200" y="150" width="120" height="60" as="geometry" />
      </mxCell>
    </object><object id="139811033185584" label="U([0.22035,0.24085))">
      <mxCell style="rounded=1;whiteSpace=wrap;html=1;" vertex="1" parent="1">
          <mxGeometry x="200" y="150" width="120" height="60" as="geometry" />
      </mxCell>
    </object><object id="139811033185200" label="U([0.24085,0.304])">
      <mxCell style="rounded=1;whiteSpace=wrap;html=1;" vertex="1" parent="1">
          <mxGeometry x="200" y="150" width="120" height="60" as="geometry" />
      </mxCell>
    </object><object id="139811033184480" label="U([0.1308,0.1552))">
      <mxCell style="rounded=1;whiteSpace=wrap;html=1;" vertex="1" parent="1">
          <mxGeometry x="200" y="150" width="120" height="60" as="geometry" />
      </mxCell>
    </object><object id="139811033184336" label="U([0.1552,0.1624))">
      <mxCell style="rounded=1;whiteSpace=wrap;html=1;" vertex="1" parent="1">
          <mxGeometry x="200" y="150" width="120" height="60" as="geometry" />
      </mxCell>
    </object><object id="139811033556016" label="U([0.1624,0.17149999999999999))">
      <mxCell style="rounded=1;whiteSpace=wrap;html=1;" vertex="1" parent="1">
          <mxGeometry x="200" y="150" width="120" height="60" as="geometry" />
      </mxCell>
    </object><object id="139811033182512" label="⊕">
      <mxCell style="rounded=1;whiteSpace=wrap;html=1;" vertex="1" parent="1">
          <mxGeometry x="200" y="150" width="120" height="60" as="geometry" />
      </mxCell>
    </object><object id="139811033558752" label="U([27.104999999999997,39.28])">
      <mxCell style="rounded=1;whiteSpace=wrap;html=1;" vertex="1" parent="1">
          <mxGeometry x="200" y="150" width="120" height="60" as="geometry" />
      </mxCell>
    </object><object id="139811033556064" label="U([10.38,16.625))">
      <mxCell style="rounded=1;whiteSpace=wrap;html=1;" vertex="1" parent="1">
          <mxGeometry x="200" y="150" width="120" height="60" as="geometry" />
      </mxCell>
    </object><object id="139811033152192" label="U([16.625,27.104999999999997))">
      <mxCell style="rounded=1;whiteSpace=wrap;html=1;" vertex="1" parent="1">
          <mxGeometry x="200" y="150" width="120" height="60" as="geometry" />
      </mxCell>
    </object><object id="139811033558608" label="⊕">
      <mxCell style="rounded=1;whiteSpace=wrap;html=1;" vertex="1" parent="1">
          <mxGeometry x="200" y="150" width="120" height="60" as="geometry" />
      </mxCell>
    </object><object id="139811033151472" label="U([1.334,4.900499999999999))">
      <mxCell style="rounded=1;whiteSpace=wrap;html=1;" vertex="1" parent="1">
          <mxGeometry x="200" y="150" width="120" height="60" as="geometry" />
      </mxCell>
    </object><object id="139811033150320" label="U([4.900499999999999,7.7765))">
      <mxCell style="rounded=1;whiteSpace=wrap;html=1;" vertex="1" parent="1">
          <mxGeometry x="200" y="150" width="120" height="60" as="geometry" />
      </mxCell>
    </object><object id="139811033256048" label="U([7.7765,21.98])">
      <mxCell style="rounded=1;whiteSpace=wrap;html=1;" vertex="1" parent="1">
          <mxGeometry x="200" y="150" width="120" height="60" as="geometry" />
      </mxCell>
    </object><object id="139811033150752" label="⊕">
      <mxCell style="rounded=1;whiteSpace=wrap;html=1;" vertex="1" parent="1">
          <mxGeometry x="200" y="150" width="120" height="60" as="geometry" />
      </mxCell>
    </object><object id="139811033256816" label="U([0.1938,0.83935))">
      <mxCell style="rounded=1;whiteSpace=wrap;html=1;" vertex="1" parent="1">
          <mxGeometry x="200" y="150" width="120" height="60" as="geometry" />
      </mxCell>
    </object><object id="139811033256720" label="U([0.83935,1.103))">
      <mxCell style="rounded=1;whiteSpace=wrap;html=1;" vertex="1" parent="1">
          <mxGeometry x="200" y="150" width="120" height="60" as="geometry" />
      </mxCell>
    </object><object id="139811033257200" label="U([1.103,2.873])">
      <mxCell style="rounded=1;whiteSpace=wrap;html=1;" vertex="1" parent="1">
          <mxGeometry x="200" y="150" width="120" height="60" as="geometry" />
      </mxCell>
    </object><object id="139811033258496" label="⊕">
      <mxCell style="rounded=1;whiteSpace=wrap;html=1;" vertex="1" parent="1">
          <mxGeometry x="200" y="150" width="120" height="60" as="geometry" />
      </mxCell>
    </object><object id="139811033258256" label="U([0.004427,0.008289999999999999))">
      <mxCell style="rounded=1;whiteSpace=wrap;html=1;" vertex="1" parent="1">
          <mxGeometry x="200" y="150" width="120" height="60" as="geometry" />
      </mxCell>
    </object><object id="139811033258208" label="U([0.008289999999999999,0.010785))">
      <mxCell style="rounded=1;whiteSpace=wrap;html=1;" vertex="1" parent="1">
          <mxGeometry x="200" y="150" width="120" height="60" as="geometry" />
      </mxCell>
    </object><object id="139811033258304" label="U([0.010785,0.03113])">
      <mxCell style="rounded=1;whiteSpace=wrap;html=1;" vertex="1" parent="1">
          <mxGeometry x="200" y="150" width="120" height="60" as="geometry" />
      </mxCell>
    </object><object id="139811033258160" label="U([0.002667,0.0039385))">
      <mxCell style="rounded=1;whiteSpace=wrap;html=1;" vertex="1" parent="1">
          <mxGeometry x="200" y="150" width="120" height="60" as="geometry" />
      </mxCell>
    </object><object id="139811033258448" label="U([0.0039385,0.004427))">
      <mxCell style="rounded=1;whiteSpace=wrap;html=1;" vertex="1" parent="1">
          <mxGeometry x="200" y="150" width="120" height="60" as="geometry" />
      </mxCell>
    </object><object id="139811033259984" label="⊕">
      <mxCell style="rounded=1;whiteSpace=wrap;html=1;" vertex="1" parent="1">
          <mxGeometry x="200" y="150" width="120" height="60" as="geometry" />
      </mxCell>
    </object><object id="139811033297056" label="U([0.01269,0.024425000000000002))">
      <mxCell style="rounded=1;whiteSpace=wrap;html=1;" vertex="1" parent="1">
          <mxGeometry x="200" y="150" width="120" height="60" as="geometry" />
      </mxCell>
    </object><object id="139811033297296" label="U([0.024425000000000002,0.031865))">
      <mxCell style="rounded=1;whiteSpace=wrap;html=1;" vertex="1" parent="1">
          <mxGeometry x="200" y="150" width="120" height="60" as="geometry" />
      </mxCell>
    </object><object id="139811033297104" label="U([0.031865,0.07895])">
      <mxCell style="rounded=1;whiteSpace=wrap;html=1;" vertex="1" parent="1">
          <mxGeometry x="200" y="150" width="120" height="60" as="geometry" />
      </mxCell>
    </object><object id="139811033297152" label="U([0.007882,0.011134999999999999))">
      <mxCell style="rounded=1;whiteSpace=wrap;html=1;" vertex="1" parent="1">
          <mxGeometry x="200" y="150" width="120" height="60" as="geometry" />
      </mxCell>
    </object><object id="139811033296960" label="U([0.011134999999999999,0.01269))">
      <mxCell style="rounded=1;whiteSpace=wrap;html=1;" vertex="1" parent="1">
          <mxGeometry x="200" y="150" width="120" height="60" as="geometry" />
      </mxCell>
    </object><object id="139811033298976" label="⊕">
      <mxCell style="rounded=1;whiteSpace=wrap;html=1;" vertex="1" parent="1">
          <mxGeometry x="200" y="150" width="120" height="60" as="geometry" />
      </mxCell>
    </object><object id="139811033299072" label="U([0.3621,0.6270500000000001))">
      <mxCell style="rounded=1;whiteSpace=wrap;html=1;" vertex="1" parent="1">
          <mxGeometry x="200" y="150" width="120" height="60" as="geometry" />
      </mxCell>
    </object><object id="139811033298832" label="U([0.6270500000000001,1.63))">
      <mxCell style="rounded=1;whiteSpace=wrap;html=1;" vertex="1" parent="1">
          <mxGeometry x="200" y="150" width="120" height="60" as="geometry" />
      </mxCell>
    </object><object id="139811033298688" label="U([1.63,1.9460000000000002))">
      <mxCell style="rounded=1;whiteSpace=wrap;html=1;" vertex="1" parent="1">
          <mxGeometry x="200" y="150" width="120" height="60" as="geometry" />
      </mxCell>
    </object><object id="139811033258688" label="U([1.9460000000000002,3.568])">
      <mxCell style="rounded=1;whiteSpace=wrap;html=1;" vertex="1" parent="1">
          <mxGeometry x="200" y="150" width="120" height="60" as="geometry" />
      </mxCell>
    </object><object id="139811033256768" label="⊕">
      <mxCell style="rounded=1;whiteSpace=wrap;html=1;" vertex="1" parent="1">
          <mxGeometry x="200" y="150" width="120" height="60" as="geometry" />
      </mxCell>
    </object><object id="139811033257824" label="U([508.1,2024.5))">
      <mxCell style="rounded=1;whiteSpace=wrap;html=1;" vertex="1" parent="1">
          <mxGeometry x="200" y="150" width="120" height="60" as="geometry" />
      </mxCell>
    </object><object id="139811033257632" label="U([2024.5,2530.5))">
      <mxCell style="rounded=1;whiteSpace=wrap;html=1;" vertex="1" parent="1">
          <mxGeometry x="200" y="150" width="120" height="60" as="geometry" />
      </mxCell>
    </object><object id="139811033257920" label="U([2530.5,4254.0])">
      <mxCell style="rounded=1;whiteSpace=wrap;html=1;" vertex="1" parent="1">
          <mxGeometry x="200" y="150" width="120" height="60" as="geometry" />
      </mxCell>
    </object><object id="139811033256336" label="⊕">
      <mxCell style="rounded=1;whiteSpace=wrap;html=1;" vertex="1" parent="1">
          <mxGeometry x="200" y="150" width="120" height="60" as="geometry" />
      </mxCell>
    </object><object id="139811033558656" label="U([0.05131,0.17995))">
      <mxCell style="rounded=1;whiteSpace=wrap;html=1;" vertex="1" parent="1">
          <mxGeometry x="200" y="150" width="120" height="60" as="geometry" />
      </mxCell>
    </object><object id="139811033555104" label="U([0.17995,0.4755))">
      <mxCell style="rounded=1;whiteSpace=wrap;html=1;" vertex="1" parent="1">
          <mxGeometry x="200" y="150" width="120" height="60" as="geometry" />
      </mxCell>
    </object><object id="139811033558944" label="U([0.4755,0.6205499999999999))">
      <mxCell style="rounded=1;whiteSpace=wrap;html=1;" vertex="1" parent="1">
          <mxGeometry x="200" y="150" width="120" height="60" as="geometry" />
      </mxCell>
    </object><object id="139811033185392" label="U([0.6205499999999999,1.058])">
      <mxCell style="rounded=1;whiteSpace=wrap;html=1;" vertex="1" parent="1">
          <mxGeometry x="200" y="150" width="120" height="60" as="geometry" />
      </mxCell>
    </object><object id="139811033185248" label="⊕">
      <mxCell style="rounded=1;whiteSpace=wrap;html=1;" vertex="1" parent="1">
          <mxGeometry x="200" y="150" width="120" height="60" as="geometry" />
      </mxCell>
    </object><object id="139811033299264" label="U([0.02899,0.10975))">
      <mxCell style="rounded=1;whiteSpace=wrap;html=1;" vertex="1" parent="1">
          <mxGeometry x="200" y="150" width="120" height="60" as="geometry" />
      </mxCell>
    </object><object id="139811033299456" label="U([0.10975,0.2261))">
      <mxCell style="rounded=1;whiteSpace=wrap;html=1;" vertex="1" parent="1">
          <mxGeometry x="200" y="150" width="120" height="60" as="geometry" />
      </mxCell>
    </object><object id="139811033298304" label="U([0.2261,0.291])">
      <mxCell style="rounded=1;whiteSpace=wrap;html=1;" vertex="1" parent="1">
          <mxGeometry x="200" y="150" width="120" height="60" as="geometry" />
      </mxCell>
    </object><object id="139811033300224" label="⊕">
      <mxCell style="rounded=1;whiteSpace=wrap;html=1;" vertex="1" parent="1">
          <mxGeometry x="200" y="150" width="120" height="60" as="geometry" />
      </mxCell>
    </object><object id="139811033299888" label="U([0.7102999999999999,1.17])">
      <mxCell style="rounded=1;whiteSpace=wrap;html=1;" vertex="1" parent="1">
          <mxGeometry x="200" y="150" width="120" height="60" as="geometry" />
      </mxCell>
    </object><object id="139811033299840" label="U([0.02398,0.22294999999999998))">
      <mxCell style="rounded=1;whiteSpace=wrap;html=1;" vertex="1" parent="1">
          <mxGeometry x="200" y="150" width="120" height="60" as="geometry" />
      </mxCell>
    </object><object id="139811033299984" label="U([0.22294999999999998,0.7102999999999999))">
      <mxCell style="rounded=1;whiteSpace=wrap;html=1;" vertex="1" parent="1">
          <mxGeometry x="200" y="150" width="120" height="60" as="geometry" />
      </mxCell>
    </object><object id="139811033300656" label="⊕">
      <mxCell style="rounded=1;whiteSpace=wrap;html=1;" vertex="1" parent="1">
          <mxGeometry x="200" y="150" width="120" height="60" as="geometry" />
      </mxCell>
    </object><object id="139811033321920" label="U([0.07383999999999999,0.10715))">
      <mxCell style="rounded=1;whiteSpace=wrap;html=1;" vertex="1" parent="1">
          <mxGeometry x="200" y="150" width="120" height="60" as="geometry" />
      </mxCell>
    </object><object id="139811033321872" label="U([0.10715,0.12905))">
      <mxCell style="rounded=1;whiteSpace=wrap;html=1;" vertex="1" parent="1">
          <mxGeometry x="200" y="150" width="120" height="60" as="geometry" />
      </mxCell>
    </object><object id="139811033321968" label="U([0.12905,0.2075])">
      <mxCell style="rounded=1;whiteSpace=wrap;html=1;" vertex="1" parent="1">
          <mxGeometry x="200" y="150" width="120" height="60" as="geometry" />
      </mxCell>
    </object><object id="139811033321824" label="U([0.05504,0.063365))">
      <mxCell style="rounded=1;whiteSpace=wrap;html=1;" vertex="1" parent="1">
          <mxGeometry x="200" y="150" width="120" height="60" as="geometry" />
      </mxCell>
    </object><object id="139811033322112" label="U([0.063365,0.07383999999999999))">
      <mxCell style="rounded=1;whiteSpace=wrap;html=1;" vertex="1" parent="1">
          <mxGeometry x="200" y="150" width="120" height="60" as="geometry" />
      </mxCell>
    </object><object id="139811033323936" label="⊕">
      <mxCell style="rounded=1;whiteSpace=wrap;html=1;" vertex="1" parent="1">
          <mxGeometry x="200" y="150" width="120" height="60" as="geometry" />
      </mxCell>
    </object><object id="139811033324032" label="U([85.1,102.35))">
      <mxCell style="rounded=1;whiteSpace=wrap;html=1;" vertex="1" parent="1">
          <mxGeometry x="200" y="150" width="120" height="60" as="geometry" />
      </mxCell>
    </object><object id="139811033323792" label="U([102.35,171.55))">
      <mxCell style="rounded=1;whiteSpace=wrap;html=1;" vertex="1" parent="1">
          <mxGeometry x="200" y="150" width="120" height="60" as="geometry" />
      </mxCell>
    </object><object id="139811033323648" label="U([171.55,188.25))">
      <mxCell style="rounded=1;whiteSpace=wrap;html=1;" vertex="1" parent="1">
          <mxGeometry x="200" y="150" width="120" height="60" as="geometry" />
      </mxCell>
    </object><object id="139811033323840" label="U([188.25,251.2])">
      <mxCell style="rounded=1;whiteSpace=wrap;html=1;" vertex="1" parent="1">
          <mxGeometry x="200" y="150" width="120" height="60" as="geometry" />
      </mxCell>
    </object><object id="139811033325376" label="⊕">
      <mxCell style="rounded=1;whiteSpace=wrap;html=1;" vertex="1" parent="1">
          <mxGeometry x="200" y="150" width="120" height="60" as="geometry" />
      </mxCell>
    </object><object id="139811033350208" label="U([12.84,15.48))">
      <mxCell style="rounded=1;whiteSpace=wrap;html=1;" vertex="1" parent="1">
          <mxGeometry x="200" y="150" width="120" height="60" as="geometry" />
      </mxCell>
    </object><object id="139811033350352" label="U([15.48,26.185000000000002))">
      <mxCell style="rounded=1;whiteSpace=wrap;html=1;" vertex="1" parent="1">
          <mxGeometry x="200" y="150" width="120" height="60" as="geometry" />
      </mxCell>
    </object><object id="139811033350544" label="U([26.185000000000002,28.295))">
      <mxCell style="rounded=1;whiteSpace=wrap;html=1;" vertex="1" parent="1">
          <mxGeometry x="200" y="150" width="120" height="60" as="geometry" />
      </mxCell>
    </object><object id="139811033350736" label="U([28.295,36.04])">
      <mxCell style="rounded=1;whiteSpace=wrap;html=1;" vertex="1" parent="1">
          <mxGeometry x="200" y="150" width="120" height="60" as="geometry" />
      </mxCell>
    </object><object id="139811033351600" label="⊕">
      <mxCell style="rounded=1;whiteSpace=wrap;html=1;" vertex="1" parent="1">
          <mxGeometry x="200" y="150" width="120" height="60" as="geometry" />
      </mxCell>
    </object><object id="139811033351696" label="U([0.12255,0.17065000000000002))">
      <mxCell style="rounded=1;whiteSpace=wrap;html=1;" vertex="1" parent="1">
          <mxGeometry x="200" y="150" width="120" height="60" as="geometry" />
      </mxCell>
    </object><object id="139811033351648" label="U([0.17065000000000002,0.17995))">
      <mxCell style="rounded=1;whiteSpace=wrap;html=1;" vertex="1" parent="1">
          <mxGeometry x="200" y="150" width="120" height="60" as="geometry" />
      </mxCell>
    </object><object id="139811033351744" label="U([0.17995,0.2226])">
      <mxCell style="rounded=1;whiteSpace=wrap;html=1;" vertex="1" parent="1">
          <mxGeometry x="200" y="150" width="120" height="60" as="geometry" />
      </mxCell>
    </object><object id="139811033351408" label="U([0.08822,0.11275))">
      <mxCell style="rounded=1;whiteSpace=wrap;html=1;" vertex="1" parent="1">
          <mxGeometry x="200" y="150" width="120" height="60" as="geometry" />
      </mxCell>
    </object><object id="139811033325184" label="U([0.11275,0.12255))">
      <mxCell style="rounded=1;whiteSpace=wrap;html=1;" vertex="1" parent="1">
          <mxGeometry x="200" y="150" width="120" height="60" as="geometry" />
      </mxCell>
    </object><object id="139811033323312" label="⊕">
      <mxCell style="rounded=1;whiteSpace=wrap;html=1;" vertex="1" parent="1">
          <mxGeometry x="200" y="150" width="120" height="60" as="geometry" />
      </mxCell>
    </object><object id="139811033322496" label="U([0.1565,0.244))">
      <mxCell style="rounded=1;whiteSpace=wrap;html=1;" vertex="1" parent="1">
          <mxGeometry x="200" y="150" width="120" height="60" as="geometry" />
      </mxCell>
    </object><object id="139811033323168" label="U([0.244,0.37224999999999997))">
      <mxCell style="rounded=1;whiteSpace=wrap;html=1;" vertex="1" parent="1">
          <mxGeometry x="200" y="150" width="120" height="60" as="geometry" />
      </mxCell>
    </object><object id="139811033323264" label="U([0.37224999999999997,0.4405))">
      <mxCell style="rounded=1;whiteSpace=wrap;html=1;" vertex="1" parent="1">
          <mxGeometry x="200" y="150" width="120" height="60" as="geometry" />
      </mxCell>
    </object><object id="139811033324080" label="U([0.4405,0.6638])">
      <mxCell style="rounded=1;whiteSpace=wrap;html=1;" vertex="1" parent="1">
          <mxGeometry x="200" y="150" width="120" height="60" as="geometry" />
      </mxCell>
    </object><object id="139811033505600" label="⊕">
      <mxCell style="rounded=1;whiteSpace=wrap;html=1;" vertex="1" parent="1">
          <mxGeometry x="200" y="150" width="120" height="60" as="geometry" />
      </mxCell>
    </object><object id="139811033300800" label="U([24.06,35.769999999999996))">
      <mxCell style="rounded=1;whiteSpace=wrap;html=1;" vertex="1" parent="1">
          <mxGeometry x="200" y="150" width="120" height="60" as="geometry" />
      </mxCell>
    </object><object id="139811033300896" label="U([35.769999999999996,38.849999999999994))">
      <mxCell style="rounded=1;whiteSpace=wrap;html=1;" vertex="1" parent="1">
          <mxGeometry x="200" y="150" width="120" height="60" as="geometry" />
      </mxCell>
    </object><object id="139811033300128" label="U([38.849999999999994,49.54])">
      <mxCell style="rounded=1;whiteSpace=wrap;html=1;" vertex="1" parent="1">
          <mxGeometry x="200" y="150" width="120" height="60" as="geometry" />
      </mxCell>
    </object><object id="139811033297200" label="U([16.67,21.36))">
      <mxCell style="rounded=1;whiteSpace=wrap;html=1;" vertex="1" parent="1">
          <mxGeometry x="200" y="150" width="120" height="60" as="geometry" />
      </mxCell>
    </object><object id="139811033299600" label="U([21.36,24.06))">
      <mxCell style="rounded=1;whiteSpace=wrap;html=1;" vertex="1" parent="1">
          <mxGeometry x="200" y="150" width="120" height="60" as="geometry" />
      </mxCell>
    </object><object id="139811033300752" label="⊗">
      <mxCell style="rounded=1;whiteSpace=wrap;html=1;" vertex="1" parent="1">
          <mxGeometry x="200" y="150" width="120" height="60" as="geometry" />
      </mxCell>
    </object><object id="139811033219520" label="⊕">
      <mxCell style="rounded=1;whiteSpace=wrap;html=1;" vertex="1" parent="1">
          <mxGeometry x="200" y="150" width="120" height="60" as="geometry" />
      </mxCell>
    </object><object id="139811033219376" label="U([6.802,25.22])">
      <mxCell style="rounded=1;whiteSpace=wrap;html=1;" vertex="1" parent="1">
          <mxGeometry x="200" y="150" width="120" height="60" as="geometry" />
      </mxCell>
    </object><object id="139811033324896" label="⊕">
      <mxCell style="rounded=1;whiteSpace=wrap;html=1;" vertex="1" parent="1">
          <mxGeometry x="200" y="150" width="120" height="60" as="geometry" />
      </mxCell>
    </object><object id="139811033259600" label="U([0.0079,0.022175))">
      <mxCell style="rounded=1;whiteSpace=wrap;html=1;" vertex="1" parent="1">
          <mxGeometry x="200" y="150" width="120" height="60" as="geometry" />
      </mxCell>
    </object><object id="139811033259744" label="U([0.022175,0.03535))">
      <mxCell style="rounded=1;whiteSpace=wrap;html=1;" vertex="1" parent="1">
          <mxGeometry x="200" y="150" width="120" height="60" as="geometry" />
      </mxCell>
    </object><object id="139811033352464" label="U([0.002252,0.005676499999999999))">
      <mxCell style="rounded=1;whiteSpace=wrap;html=1;" vertex="1" parent="1">
          <mxGeometry x="200" y="150" width="120" height="60" as="geometry" />
      </mxCell>
    </object><object id="139811033350304" label="U([0.005676499999999999,0.0079))">
      <mxCell style="rounded=1;whiteSpace=wrap;html=1;" vertex="1" parent="1">
          <mxGeometry x="200" y="150" width="120" height="60" as="geometry" />
      </mxCell>
    </object><object id="139811033352560" label="U([0.03535,0.04646))">
      <mxCell style="rounded=1;whiteSpace=wrap;html=1;" vertex="1" parent="1">
          <mxGeometry x="200" y="150" width="120" height="60" as="geometry" />
      </mxCell>
    </object><object id="139811033351024" label="U([0.04646,0.07643])">
      <mxCell style="rounded=1;whiteSpace=wrap;html=1;" vertex="1" parent="1">
          <mxGeometry x="200" y="150" width="120" height="60" as="geometry" />
      </mxCell>
    </object><object id="139811033259888" label="⊕">
      <mxCell style="rounded=1;whiteSpace=wrap;html=1;" vertex="1" parent="1">
          <mxGeometry x="200" y="150" width="120" height="60" as="geometry" />
      </mxCell>
    </object><object id="139811033353184" label="U([0.013765,0.02919])">
      <mxCell style="rounded=1;whiteSpace=wrap;html=1;" vertex="1" parent="1">
          <mxGeometry x="200" y="150" width="120" height="60" as="geometry" />
      </mxCell>
    </object><object id="139811033352944" label="U([0.0,0.0034454999999999998))">
      <mxCell style="rounded=1;whiteSpace=wrap;html=1;" vertex="1" parent="1">
          <mxGeometry x="200" y="150" width="120" height="60" as="geometry" />
      </mxCell>
    </object><object id="139811033353280" label="U([0.0034454999999999998,0.004823))">
      <mxCell style="rounded=1;whiteSpace=wrap;html=1;" vertex="1" parent="1">
          <mxGeometry x="200" y="150" width="120" height="60" as="geometry" />
      </mxCell>
    </object><object id="139811033352080" label="U([0.004823,0.009618999999999999))">
      <mxCell style="rounded=1;whiteSpace=wrap;html=1;" vertex="1" parent="1">
          <mxGeometry x="200" y="150" width="120" height="60" as="geometry" />
      </mxCell>
    </object><object id="139811033353424" label="U([0.009618999999999999,0.013765))">
      <mxCell style="rounded=1;whiteSpace=wrap;html=1;" vertex="1" parent="1">
          <mxGeometry x="200" y="150" width="120" height="60" as="geometry" />
      </mxCell>
    </object><object id="139811033354144" label="⊕">
      <mxCell style="rounded=1;whiteSpace=wrap;html=1;" vertex="1" parent="1">
          <mxGeometry x="200" y="150" width="120" height="60" as="geometry" />
      </mxCell>
    </object><object id="139811033014816" label="U([0.0,0.026335))">
      <mxCell style="rounded=1;whiteSpace=wrap;html=1;" vertex="1" parent="1">
          <mxGeometry x="200" y="150" width="120" height="60" as="geometry" />
      </mxCell>
    </object><object id="139811033015200" label="U([0.026335,0.04424))">
      <mxCell style="rounded=1;whiteSpace=wrap;html=1;" vertex="1" parent="1">
          <mxGeometry x="200" y="150" width="120" height="60" as="geometry" />
      </mxCell>
    </object><object id="139811033014768" label="U([0.04424,0.06188))">
      <mxCell style="rounded=1;whiteSpace=wrap;html=1;" vertex="1" parent="1">
          <mxGeometry x="200" y="150" width="120" height="60" as="geometry" />
      </mxCell>
    </object><object id="139811033015440" label="U([0.06188,0.1535])">
      <mxCell style="rounded=1;whiteSpace=wrap;html=1;" vertex="1" parent="1">
          <mxGeometry x="200" y="150" width="120" height="60" as="geometry" />
      </mxCell>
    </object><object id="139811033016544" label="⊕">
      <mxCell style="rounded=1;whiteSpace=wrap;html=1;" vertex="1" parent="1">
          <mxGeometry x="200" y="150" width="120" height="60" as="geometry" />
      </mxCell>
    </object><object id="139811033016304" label="U([0.0009502,0.0015170000000000001))">
      <mxCell style="rounded=1;whiteSpace=wrap;html=1;" vertex="1" parent="1">
          <mxGeometry x="200" y="150" width="120" height="60" as="geometry" />
      </mxCell>
    </object><object id="139811033016640" label="U([0.0015170000000000001,0.002948))">
      <mxCell style="rounded=1;whiteSpace=wrap;html=1;" vertex="1" parent="1">
          <mxGeometry x="200" y="150" width="120" height="60" as="geometry" />
      </mxCell>
    </object><object id="139811033016592" label="U([0.002948,0.0048265))">
      <mxCell style="rounded=1;whiteSpace=wrap;html=1;" vertex="1" parent="1">
          <mxGeometry x="200" y="150" width="120" height="60" as="geometry" />
      </mxCell>
    </object><object id="139811033016352" label="U([0.0048265,0.0064665))">
      <mxCell style="rounded=1;whiteSpace=wrap;html=1;" vertex="1" parent="1">
          <mxGeometry x="200" y="150" width="120" height="60" as="geometry" />
      </mxCell>
    </object><object id="139811033353232" label="U([0.0064665,0.0122])">
      <mxCell style="rounded=1;whiteSpace=wrap;html=1;" vertex="1" parent="1">
          <mxGeometry x="200" y="150" width="120" height="60" as="geometry" />
      </mxCell>
    </object><object id="139811033351120" label="Nominal('friendly', 'malignant')">
      <mxCell style="rounded=1;whiteSpace=wrap;html=1;" vertex="1" parent="1">
          <mxGeometry x="200" y="150" width="120" height="60" as="geometry" />
      </mxCell>
    </object><object id="139811033220960" label="⊕">
      <mxCell style="rounded=1;whiteSpace=wrap;html=1;" vertex="1" parent="1">
          <mxGeometry x="200" y="150" width="120" height="60" as="geometry" />
      </mxCell>
    </object><object id="139811033017504" label="U([364.65,607.8))">
      <mxCell style="rounded=1;whiteSpace=wrap;html=1;" vertex="1" parent="1">
          <mxGeometry x="200" y="150" width="120" height="60" as="geometry" />
      </mxCell>
    </object><object id="139811033017264" label="U([607.8,685.2))">
      <mxCell style="rounded=1;whiteSpace=wrap;html=1;" vertex="1" parent="1">
          <mxGeometry x="200" y="150" width="120" height="60" as="geometry" />
      </mxCell>
    </object><object id="139811033015872" label="U([685.2,819.8])">
      <mxCell style="rounded=1;whiteSpace=wrap;html=1;" vertex="1" parent="1">
          <mxGeometry x="200" y="150" width="120" height="60" as="geometry" />
      </mxCell>
    </object><object id="139811033016448" label="U([143.5,266.4))">
      <mxCell style="rounded=1;whiteSpace=wrap;html=1;" vertex="1" parent="1">
          <mxGeometry x="200" y="150" width="120" height="60" as="geometry" />
      </mxCell>
    </object><object id="139811033016496" label="U([266.4,364.65))">
      <mxCell style="rounded=1;whiteSpace=wrap;html=1;" vertex="1" parent="1">
          <mxGeometry x="200" y="150" width="120" height="60" as="geometry" />
      </mxCell>
    </object><object id="139811033018032" label="⊕">
      <mxCell style="rounded=1;whiteSpace=wrap;html=1;" vertex="1" parent="1">
          <mxGeometry x="200" y="150" width="120" height="60" as="geometry" />
      </mxCell>
    </object><object id="139811033051344" label="U([0.01938,0.0377))">
      <mxCell style="rounded=1;whiteSpace=wrap;html=1;" vertex="1" parent="1">
          <mxGeometry x="200" y="150" width="120" height="60" as="geometry" />
      </mxCell>
    </object><object id="139811033051440" label="U([0.11615,0.13205))">
      <mxCell style="rounded=1;whiteSpace=wrap;html=1;" vertex="1" parent="1">
          <mxGeometry x="200" y="150" width="120" height="60" as="geometry" />
      </mxCell>
    </object><object id="139811033051632" label="U([0.13205,0.2204])">
      <mxCell style="rounded=1;whiteSpace=wrap;html=1;" vertex="1" parent="1">
          <mxGeometry x="200" y="150" width="120" height="60" as="geometry" />
      </mxCell>
    </object><object id="139811033051296" label="U([0.0377,0.08562))">
      <mxCell style="rounded=1;whiteSpace=wrap;html=1;" vertex="1" parent="1">
          <mxGeometry x="200" y="150" width="120" height="60" as="geometry" />
      </mxCell>
    </object><object id="139811033052016" label="U([0.08562,0.11615))">
      <mxCell style="rounded=1;whiteSpace=wrap;html=1;" vertex="1" parent="1">
          <mxGeometry x="200" y="150" width="120" height="60" as="geometry" />
      </mxCell>
    </object><object id="139811033052976" label="⊕">
      <mxCell style="rounded=1;whiteSpace=wrap;html=1;" vertex="1" parent="1">
          <mxGeometry x="200" y="150" width="120" height="60" as="geometry" />
      </mxCell>
    </object><object id="139811033053072" label="U([0.0,0.010905000000000001))">
      <mxCell style="rounded=1;whiteSpace=wrap;html=1;" vertex="1" parent="1">
          <mxGeometry x="200" y="150" width="120" height="60" as="geometry" />
      </mxCell>
    </object><object id="139811033052832" label="U([0.010905000000000001,0.03395))">
      <mxCell style="rounded=1;whiteSpace=wrap;html=1;" vertex="1" parent="1">
          <mxGeometry x="200" y="150" width="120" height="60" as="geometry" />
      </mxCell>
    </object><object id="139811033052688" label="U([0.03395,0.038404999999999995))">
      <mxCell style="rounded=1;whiteSpace=wrap;html=1;" vertex="1" parent="1">
          <mxGeometry x="200" y="150" width="120" height="60" as="geometry" />
      </mxCell>
    </object><object id="139811033052640" label="U([0.038404999999999995,0.05184))">
      <mxCell style="rounded=1;whiteSpace=wrap;html=1;" vertex="1" parent="1">
          <mxGeometry x="200" y="150" width="120" height="60" as="geometry" />
      </mxCell>
    </object><object id="139811033053552" label="U([0.05184,0.07038])">
      <mxCell style="rounded=1;whiteSpace=wrap;html=1;" vertex="1" parent="1">
          <mxGeometry x="200" y="150" width="120" height="60" as="geometry" />
      </mxCell>
    </object><object id="139811033054752" label="⊕">
      <mxCell style="rounded=1;whiteSpace=wrap;html=1;" vertex="1" parent="1">
          <mxGeometry x="200" y="150" width="120" height="60" as="geometry" />
      </mxCell>
    </object><object id="139811033054464" label="U([0.0,0.06175))">
      <mxCell style="rounded=1;whiteSpace=wrap;html=1;" vertex="1" parent="1">
          <mxGeometry x="200" y="150" width="120" height="60" as="geometry" />
      </mxCell>
    </object><object id="139811033054560" label="U([0.09557,0.228])">
      <mxCell style="rounded=1;whiteSpace=wrap;html=1;" vertex="1" parent="1">
          <mxGeometry x="200" y="150" width="120" height="60" as="geometry" />
      </mxCell>
    </object><object id="139811033054416" label="U([0.06175,0.068315))">
      <mxCell style="rounded=1;whiteSpace=wrap;html=1;" vertex="1" parent="1">
          <mxGeometry x="200" y="150" width="120" height="60" as="geometry" />
      </mxCell>
    </object><object id="139811033075872" label="U([0.068315,0.09557))">
      <mxCell style="rounded=1;whiteSpace=wrap;html=1;" vertex="1" parent="1">
          <mxGeometry x="200" y="150" width="120" height="60" as="geometry" />
      </mxCell>
    </object><object id="139811033055040" label="⊕">
      <mxCell style="rounded=1;whiteSpace=wrap;html=1;" vertex="1" parent="1">
          <mxGeometry x="200" y="150" width="120" height="60" as="geometry" />
      </mxCell>
    </object><object id="139811033076544" label="U([0.06911,0.09575])">
      <mxCell style="rounded=1;whiteSpace=wrap;html=1;" vertex="1" parent="1">
          <mxGeometry x="200" y="150" width="120" height="60" as="geometry" />
      </mxCell>
    </object><object id="139811033076496" label="U([0.05234,0.05523))">
      <mxCell style="rounded=1;whiteSpace=wrap;html=1;" vertex="1" parent="1">
          <mxGeometry x="200" y="150" width="120" height="60" as="geometry" />
      </mxCell>
    </object><object id="139811033076832" label="U([0.05523,0.06911))">
      <mxCell style="rounded=1;whiteSpace=wrap;html=1;" vertex="1" parent="1">
          <mxGeometry x="200" y="150" width="120" height="60" as="geometry" />
      </mxCell>
    </object><object id="139811033078272" label="⊕">
      <mxCell style="rounded=1;whiteSpace=wrap;html=1;" vertex="1" parent="1">
          <mxGeometry x="200" y="150" width="120" height="60" as="geometry" />
      </mxCell>
    </object><object id="139811033077888" label="U([43.79,59.379999999999995))">
      <mxCell style="rounded=1;whiteSpace=wrap;html=1;" vertex="1" parent="1">
          <mxGeometry x="200" y="150" width="120" height="60" as="geometry" />
      </mxCell>
    </object><object id="139811033078032" label="U([59.379999999999995,70.18))">
      <mxCell style="rounded=1;whiteSpace=wrap;html=1;" vertex="1" parent="1">
          <mxGeometry x="200" y="150" width="120" height="60" as="geometry" />
      </mxCell>
    </object><object id="139811033077984" label="U([70.18,89.91))">
      <mxCell style="rounded=1;whiteSpace=wrap;html=1;" vertex="1" parent="1">
          <mxGeometry x="200" y="150" width="120" height="60" as="geometry" />
      </mxCell>
    </object><object id="139811033077936" label="U([89.91,96.305))">
      <mxCell style="rounded=1;whiteSpace=wrap;html=1;" vertex="1" parent="1">
          <mxGeometry x="200" y="150" width="120" height="60" as="geometry" />
      </mxCell>
    </object><object id="139811033078848" label="U([96.305,106.3])">
      <mxCell style="rounded=1;whiteSpace=wrap;html=1;" vertex="1" parent="1">
          <mxGeometry x="200" y="150" width="120" height="60" as="geometry" />
      </mxCell>
    </object><object id="139811033079760" label="⊕">
      <mxCell style="rounded=1;whiteSpace=wrap;html=1;" vertex="1" parent="1">
          <mxGeometry x="200" y="150" width="120" height="60" as="geometry" />
      </mxCell>
    </object><object id="139811032596784" label="U([6.981,9.365))">
      <mxCell style="rounded=1;whiteSpace=wrap;html=1;" vertex="1" parent="1">
          <mxGeometry x="200" y="150" width="120" height="60" as="geometry" />
      </mxCell>
    </object><object id="139811032596640" label="U([9.365,10.89))">
      <mxCell style="rounded=1;whiteSpace=wrap;html=1;" vertex="1" parent="1">
          <mxGeometry x="200" y="150" width="120" height="60" as="geometry" />
      </mxCell>
    </object><object id="139811032596880" label="U([10.89,13.89))">
      <mxCell style="rounded=1;whiteSpace=wrap;html=1;" vertex="1" parent="1">
          <mxGeometry x="200" y="150" width="120" height="60" as="geometry" />
      </mxCell>
    </object><object id="139811032596736" label="U([13.89,14.895))">
      <mxCell style="rounded=1;whiteSpace=wrap;html=1;" vertex="1" parent="1">
          <mxGeometry x="200" y="150" width="120" height="60" as="geometry" />
      </mxCell>
    </object><object id="139811033079280" label="U([14.895,16.3])">
      <mxCell style="rounded=1;whiteSpace=wrap;html=1;" vertex="1" parent="1">
          <mxGeometry x="200" y="150" width="120" height="60" as="geometry" />
      </mxCell>
    </object><object id="139811033077792" label="⊕">
      <mxCell style="rounded=1;whiteSpace=wrap;html=1;" vertex="1" parent="1">
          <mxGeometry x="200" y="150" width="120" height="60" as="geometry" />
      </mxCell>
    </object><object id="139811033076784" label="U([0.10775000000000001,0.1255])">
      <mxCell style="rounded=1;whiteSpace=wrap;html=1;" vertex="1" parent="1">
          <mxGeometry x="200" y="150" width="120" height="60" as="geometry" />
      </mxCell>
    </object><object id="139811033077456" label="U([0.07899500000000001,0.10775000000000001))">
      <mxCell style="rounded=1;whiteSpace=wrap;html=1;" vertex="1" parent="1">
          <mxGeometry x="200" y="150" width="120" height="60" as="geometry" />
      </mxCell>
    </object><object id="139811033077552" label="U([0.06251,0.07421))">
      <mxCell style="rounded=1;whiteSpace=wrap;html=1;" vertex="1" parent="1">
          <mxGeometry x="200" y="150" width="120" height="60" as="geometry" />
      </mxCell>
    </object><object id="139811033075776" label="U([0.07421,0.07899500000000001))">
      <mxCell style="rounded=1;whiteSpace=wrap;html=1;" vertex="1" parent="1">
          <mxGeometry x="200" y="150" width="120" height="60" as="geometry" />
      </mxCell>
    </object><object id="139811033076352" label="⊕">
      <mxCell style="rounded=1;whiteSpace=wrap;html=1;" vertex="1" parent="1">
          <mxGeometry x="200" y="150" width="120" height="60" as="geometry" />
      </mxCell>
    </object><object id="139811033051536" label="U([0.14515,0.19685000000000002))">
      <mxCell style="rounded=1;whiteSpace=wrap;html=1;" vertex="1" parent="1">
          <mxGeometry x="200" y="150" width="120" height="60" as="geometry" />
      </mxCell>
    </object><object id="139811033051248" label="U([0.19685000000000002,0.20455))">
      <mxCell style="rounded=1;whiteSpace=wrap;html=1;" vertex="1" parent="1">
          <mxGeometry x="200" y="150" width="120" height="60" as="geometry" />
      </mxCell>
    </object><object id="139811033052208" label="U([0.20455,0.2372])">
      <mxCell style="rounded=1;whiteSpace=wrap;html=1;" vertex="1" parent="1">
          <mxGeometry x="200" y="150" width="120" height="60" as="geometry" />
      </mxCell>
    </object><object id="139811033324944" label="U([0.1203,0.1377))">
      <mxCell style="rounded=1;whiteSpace=wrap;html=1;" vertex="1" parent="1">
          <mxGeometry x="200" y="150" width="120" height="60" as="geometry" />
      </mxCell>
    </object><object id="139811033323600" label="U([0.1377,0.14515))">
      <mxCell style="rounded=1;whiteSpace=wrap;html=1;" vertex="1" parent="1">
          <mxGeometry x="200" y="150" width="120" height="60" as="geometry" />
      </mxCell>
    </object><object id="139811033324848" label="⊕">
      <mxCell style="rounded=1;whiteSpace=wrap;html=1;" vertex="1" parent="1">
          <mxGeometry x="200" y="150" width="120" height="60" as="geometry" />
      </mxCell>
    </object><object id="139811033017168" label="U([9.71,12.725000000000001))">
      <mxCell style="rounded=1;whiteSpace=wrap;html=1;" vertex="1" parent="1">
          <mxGeometry x="200" y="150" width="120" height="60" as="geometry" />
      </mxCell>
    </object><object id="139811033350448" label="U([12.725000000000001,20.215))">
      <mxCell style="rounded=1;whiteSpace=wrap;html=1;" vertex="1" parent="1">
          <mxGeometry x="200" y="150" width="120" height="60" as="geometry" />
      </mxCell>
    </object><object id="139811033352656" label="U([20.215,22.7))">
      <mxCell style="rounded=1;whiteSpace=wrap;html=1;" vertex="1" parent="1">
          <mxGeometry x="200" y="150" width="120" height="60" as="geometry" />
      </mxCell>
    </object><object id="139811033351168" label="U([22.7,25.345))">
      <mxCell style="rounded=1;whiteSpace=wrap;html=1;" vertex="1" parent="1">
          <mxGeometry x="200" y="150" width="120" height="60" as="geometry" />
      </mxCell>
    </object><object id="139811032597072" label="U([25.345,33.81])">
      <mxCell style="rounded=1;whiteSpace=wrap;html=1;" vertex="1" parent="1">
          <mxGeometry x="200" y="150" width="120" height="60" as="geometry" />
      </mxCell>
    </object><object id="139811033352800" label="⊕">
      <mxCell style="rounded=1;whiteSpace=wrap;html=1;" vertex="1" parent="1">
          <mxGeometry x="200" y="150" width="120" height="60" as="geometry" />
      </mxCell>
    </object><object id="139811032597984" label="U([2.1205,3.369])">
      <mxCell style="rounded=1;whiteSpace=wrap;html=1;" vertex="1" parent="1">
          <mxGeometry x="200" y="150" width="120" height="60" as="geometry" />
      </mxCell>
    </object><object id="139811032598416" label="U([0.757,1.092))">
      <mxCell style="rounded=1;whiteSpace=wrap;html=1;" vertex="1" parent="1">
          <mxGeometry x="200" y="150" width="120" height="60" as="geometry" />
      </mxCell>
    </object><object id="139811032598176" label="U([1.092,2.1205))">
      <mxCell style="rounded=1;whiteSpace=wrap;html=1;" vertex="1" parent="1">
          <mxGeometry x="200" y="150" width="120" height="60" as="geometry" />
      </mxCell>
    </object><object id="139811032599712" label="⊕">
      <mxCell style="rounded=1;whiteSpace=wrap;html=1;" vertex="1" parent="1">
          <mxGeometry x="200" y="150" width="120" height="60" as="geometry" />
      </mxCell>
    </object><object id="139811032599328" label="U([0.1115,0.3013])">
      <mxCell style="rounded=1;whiteSpace=wrap;html=1;" vertex="1" parent="1">
          <mxGeometry x="200" y="150" width="120" height="60" as="geometry" />
      </mxCell>
    </object><object id="139811032600528" label="⊕">
      <mxCell style="rounded=1;whiteSpace=wrap;html=1;" vertex="1" parent="1">
          <mxGeometry x="200" y="150" width="120" height="60" as="geometry" />
      </mxCell>
    </object><object id="139811032612976" label="U([0.002838,0.007428000000000001))">
      <mxCell style="rounded=1;whiteSpace=wrap;html=1;" vertex="1" parent="1">
          <mxGeometry x="200" y="150" width="120" height="60" as="geometry" />
      </mxCell>
    </object><object id="139811032612928" label="U([0.007428000000000001,0.01023))">
      <mxCell style="rounded=1;whiteSpace=wrap;html=1;" vertex="1" parent="1">
          <mxGeometry x="200" y="150" width="120" height="60" as="geometry" />
      </mxCell>
    </object><object id="139811032613408" label="U([0.01023,0.02177])">
      <mxCell style="rounded=1;whiteSpace=wrap;html=1;" vertex="1" parent="1">
          <mxGeometry x="200" y="150" width="120" height="60" as="geometry" />
      </mxCell>
    </object><object id="139811032614464" label="⊕">
      <mxCell style="rounded=1;whiteSpace=wrap;html=1;" vertex="1" parent="1">
          <mxGeometry x="200" y="150" width="120" height="60" as="geometry" />
      </mxCell>
    </object><object id="139811032614080" label="U([0.009539,0.012490000000000001))">
      <mxCell style="rounded=1;whiteSpace=wrap;html=1;" vertex="1" parent="1">
          <mxGeometry x="200" y="150" width="120" height="60" as="geometry" />
      </mxCell>
    </object><object id="139811032614224" label="U([0.012490000000000001,0.022805))">
      <mxCell style="rounded=1;whiteSpace=wrap;html=1;" vertex="1" parent="1">
          <mxGeometry x="200" y="150" width="120" height="60" as="geometry" />
      </mxCell>
    </object><object id="139811032614176" label="U([0.022805,0.027970000000000002))">
      <mxCell style="rounded=1;whiteSpace=wrap;html=1;" vertex="1" parent="1">
          <mxGeometry x="200" y="150" width="120" height="60" as="geometry" />
      </mxCell>
    </object><object id="139811032614272" label="U([0.027970000000000002,0.04243])">
      <mxCell style="rounded=1;whiteSpace=wrap;html=1;" vertex="1" parent="1">
          <mxGeometry x="200" y="150" width="120" height="60" as="geometry" />
      </mxCell>
    </object><object id="139811032615904" label="⊕">
      <mxCell style="rounded=1;whiteSpace=wrap;html=1;" vertex="1" parent="1">
          <mxGeometry x="200" y="150" width="120" height="60" as="geometry" />
      </mxCell>
    </object><object id="139811032615952" label="U([0.3602,1.6960000000000002))">
      <mxCell style="rounded=1;whiteSpace=wrap;html=1;" vertex="1" parent="1">
          <mxGeometry x="200" y="150" width="120" height="60" as="geometry" />
      </mxCell>
    </object><object id="139811032615712" label="U([1.6960000000000002,2.904])">
      <mxCell style="rounded=1;whiteSpace=wrap;html=1;" vertex="1" parent="1">
          <mxGeometry x="200" y="150" width="120" height="60" as="geometry" />
      </mxCell>
    </object><object id="139811032616912" label="⊕">
      <mxCell style="rounded=1;whiteSpace=wrap;html=1;" vertex="1" parent="1">
          <mxGeometry x="200" y="150" width="120" height="60" as="geometry" />
      </mxCell>
    </object><object id="139811032654032" label="U([434.5,747.7))">
      <mxCell style="rounded=1;whiteSpace=wrap;html=1;" vertex="1" parent="1">
          <mxGeometry x="200" y="150" width="120" height="60" as="geometry" />
      </mxCell>
    </object><object id="139811032653984" label="U([747.7,819.4000000000001))">
      <mxCell style="rounded=1;whiteSpace=wrap;html=1;" vertex="1" parent="1">
          <mxGeometry x="200" y="150" width="120" height="60" as="geometry" />
      </mxCell>
    </object><object id="139811032616336" label="U([819.4000000000001,947.9])">
      <mxCell style="rounded=1;whiteSpace=wrap;html=1;" vertex="1" parent="1">
          <mxGeometry x="200" y="150" width="120" height="60" as="geometry" />
      </mxCell>
    </object><object id="139811032615664" label="U([185.2,329.4))">
      <mxCell style="rounded=1;whiteSpace=wrap;html=1;" vertex="1" parent="1">
          <mxGeometry x="200" y="150" width="120" height="60" as="geometry" />
      </mxCell>
    </object><object id="139811032614752" label="U([329.4,434.5))">
      <mxCell style="rounded=1;whiteSpace=wrap;html=1;" vertex="1" parent="1">
          <mxGeometry x="200" y="150" width="120" height="60" as="geometry" />
      </mxCell>
    </object><object id="139811032613744" label="⊕">
      <mxCell style="rounded=1;whiteSpace=wrap;html=1;" vertex="1" parent="1">
          <mxGeometry x="200" y="150" width="120" height="60" as="geometry" />
      </mxCell>
    </object><object id="139811032614032" label="U([0.03432,0.2639))">
      <mxCell style="rounded=1;whiteSpace=wrap;html=1;" vertex="1" parent="1">
          <mxGeometry x="200" y="150" width="120" height="60" as="geometry" />
      </mxCell>
    </object><object id="139811032613984" label="U([0.2639,0.36450000000000005))">
      <mxCell style="rounded=1;whiteSpace=wrap;html=1;" vertex="1" parent="1">
          <mxGeometry x="200" y="150" width="120" height="60" as="geometry" />
      </mxCell>
    </object><object id="139811032613600" label="U([0.36450000000000005,0.5849])">
      <mxCell style="rounded=1;whiteSpace=wrap;html=1;" vertex="1" parent="1">
          <mxGeometry x="200" y="150" width="120" height="60" as="geometry" />
      </mxCell>
    </object><object id="139811032613168" label="⊕">
      <mxCell style="rounded=1;whiteSpace=wrap;html=1;" vertex="1" parent="1">
          <mxGeometry x="200" y="150" width="120" height="60" as="geometry" />
      </mxCell>
    </object><object id="139811032599520" label="U([0.05531,0.11674999999999999))">
      <mxCell style="rounded=1;whiteSpace=wrap;html=1;" vertex="1" parent="1">
          <mxGeometry x="200" y="150" width="120" height="60" as="geometry" />
      </mxCell>
    </object><object id="139811032600048" label="U([0.11674999999999999,0.13679999999999998))">
      <mxCell style="rounded=1;whiteSpace=wrap;html=1;" vertex="1" parent="1">
          <mxGeometry x="200" y="150" width="120" height="60" as="geometry" />
      </mxCell>
    </object><object id="139811032599616" label="U([0.13679999999999998,0.1708])">
      <mxCell style="rounded=1;whiteSpace=wrap;html=1;" vertex="1" parent="1">
          <mxGeometry x="200" y="150" width="120" height="60" as="geometry" />
      </mxCell>
    </object><object id="139811032600000" label="U([0.0,0.02216))">
      <mxCell style="rounded=1;whiteSpace=wrap;html=1;" vertex="1" parent="1">
          <mxGeometry x="200" y="150" width="120" height="60" as="geometry" />
      </mxCell>
    </object><object id="139811032598896" label="U([0.02216,0.05531))">
      <mxCell style="rounded=1;whiteSpace=wrap;html=1;" vertex="1" parent="1">
          <mxGeometry x="200" y="150" width="120" height="60" as="geometry" />
      </mxCell>
    </object><object id="139811033323552" label="⊕">
      <mxCell style="rounded=1;whiteSpace=wrap;html=1;" vertex="1" parent="1">
          <mxGeometry x="200" y="150" width="120" height="60" as="geometry" />
      </mxCell>
    </object><object id="139811033054128" label="U([0.0,0.24475000000000002))">
      <mxCell style="rounded=1;whiteSpace=wrap;html=1;" vertex="1" parent="1">
          <mxGeometry x="200" y="150" width="120" height="60" as="geometry" />
      </mxCell>
    </object><object id="139811033053984" label="U([0.24475000000000002,0.37205))">
      <mxCell style="rounded=1;whiteSpace=wrap;html=1;" vertex="1" parent="1">
          <mxGeometry x="200" y="150" width="120" height="60" as="geometry" />
      </mxCell>
    </object><object id="139811033078128" label="U([0.37205,0.7727])">
      <mxCell style="rounded=1;whiteSpace=wrap;html=1;" vertex="1" parent="1">
          <mxGeometry x="200" y="150" width="120" height="60" as="geometry" />
      </mxCell>
    </object><object id="139811033054032" label="⊕">
      <mxCell style="rounded=1;whiteSpace=wrap;html=1;" vertex="1" parent="1">
          <mxGeometry x="200" y="150" width="120" height="60" as="geometry" />
      </mxCell>
    </object><object id="139811032654080" label="U([0.05843,0.09370500000000001))">
      <mxCell style="rounded=1;whiteSpace=wrap;html=1;" vertex="1" parent="1">
          <mxGeometry x="200" y="150" width="120" height="60" as="geometry" />
      </mxCell>
    </object><object id="139811032654224" label="U([0.09370500000000001,0.1028))">
      <mxCell style="rounded=1;whiteSpace=wrap;html=1;" vertex="1" parent="1">
          <mxGeometry x="200" y="150" width="120" height="60" as="geometry" />
      </mxCell>
    </object><object id="139811032654176" label="U([0.1028,0.1486])">
      <mxCell style="rounded=1;whiteSpace=wrap;html=1;" vertex="1" parent="1">
          <mxGeometry x="200" y="150" width="120" height="60" as="geometry" />
      </mxCell>
    </object><object id="139811032655856" label="⊕">
      <mxCell style="rounded=1;whiteSpace=wrap;html=1;" vertex="1" parent="1">
          <mxGeometry x="200" y="150" width="120" height="60" as="geometry" />
      </mxCell>
    </object><object id="139811032655472" label="U([50.41,66.13499999999999))">
      <mxCell style="rounded=1;whiteSpace=wrap;html=1;" vertex="1" parent="1">
          <mxGeometry x="200" y="150" width="120" height="60" as="geometry" />
      </mxCell>
    </object><object id="139811032655616" label="U([66.13499999999999,76.16499999999999))">
      <mxCell style="rounded=1;whiteSpace=wrap;html=1;" vertex="1" parent="1">
          <mxGeometry x="200" y="150" width="120" height="60" as="geometry" />
      </mxCell>
    </object><object id="139811032655568" label="U([76.16499999999999,99.705))">
      <mxCell style="rounded=1;whiteSpace=wrap;html=1;" vertex="1" parent="1">
          <mxGeometry x="200" y="150" width="120" height="60" as="geometry" />
      </mxCell>
    </object><object id="139811032655520" label="U([99.705,105.95))">
      <mxCell style="rounded=1;whiteSpace=wrap;html=1;" vertex="1" parent="1">
          <mxGeometry x="200" y="150" width="120" height="60" as="geometry" />
      </mxCell>
    </object><object id="139811032656432" label="U([105.95,115.9])">
      <mxCell style="rounded=1;whiteSpace=wrap;html=1;" vertex="1" parent="1">
          <mxGeometry x="200" y="150" width="120" height="60" as="geometry" />
      </mxCell>
    </object><object id="139811032657632" label="⊕">
      <mxCell style="rounded=1;whiteSpace=wrap;html=1;" vertex="1" parent="1">
          <mxGeometry x="200" y="150" width="120" height="60" as="geometry" />
      </mxCell>
    </object><object id="139811032657344" label="U([7.93,10.555))">
      <mxCell style="rounded=1;whiteSpace=wrap;html=1;" vertex="1" parent="1">
          <mxGeometry x="200" y="150" width="120" height="60" as="geometry" />
      </mxCell>
    </object><object id="139811032657728" label="U([10.555,15.57))">
      <mxCell style="rounded=1;whiteSpace=wrap;html=1;" vertex="1" parent="1">
          <mxGeometry x="200" y="150" width="120" height="60" as="geometry" />
      </mxCell>
    </object><object id="139811032686704" label="U([15.57,17.71])">
      <mxCell style="rounded=1;whiteSpace=wrap;html=1;" vertex="1" parent="1">
          <mxGeometry x="200" y="150" width="120" height="60" as="geometry" />
      </mxCell>
    </object><object id="139811032657872" label="⊕">
      <mxCell style="rounded=1;whiteSpace=wrap;html=1;" vertex="1" parent="1">
          <mxGeometry x="200" y="150" width="120" height="60" as="geometry" />
      </mxCell>
    </object><object id="139811032687424" label="U([0.15545,0.2006])">
      <mxCell style="rounded=1;whiteSpace=wrap;html=1;" vertex="1" parent="1">
          <mxGeometry x="200" y="150" width="120" height="60" as="geometry" />
      </mxCell>
    </object><object id="139811032687520" label="U([0.10655,0.15545))">
      <mxCell style="rounded=1;whiteSpace=wrap;html=1;" vertex="1" parent="1">
          <mxGeometry x="200" y="150" width="120" height="60" as="geometry" />
      </mxCell>
    </object><object id="139811032687472" label="U([0.08125,0.09451000000000001))">
      <mxCell style="rounded=1;whiteSpace=wrap;html=1;" vertex="1" parent="1">
          <mxGeometry x="200" y="150" width="120" height="60" as="geometry" />
      </mxCell>
    </object><object id="139811032687904" label="U([0.09451000000000001,0.10655))">
      <mxCell style="rounded=1;whiteSpace=wrap;html=1;" vertex="1" parent="1">
          <mxGeometry x="200" y="150" width="120" height="60" as="geometry" />
      </mxCell>
    </object><object id="139811032689200" label="⊕">
      <mxCell style="rounded=1;whiteSpace=wrap;html=1;" vertex="1" parent="1">
          <mxGeometry x="200" y="150" width="120" height="60" as="geometry" />
      </mxCell>
    </object><object id="139811032689008" label="U([0.3403,0.4128])">
      <mxCell style="rounded=1;whiteSpace=wrap;html=1;" vertex="1" parent="1">
          <mxGeometry x="200" y="150" width="120" height="60" as="geometry" />
      </mxCell>
    </object><object id="139811032688960" label="U([0.1783,0.22194999999999998))">
      <mxCell style="rounded=1;whiteSpace=wrap;html=1;" vertex="1" parent="1">
          <mxGeometry x="200" y="150" width="120" height="60" as="geometry" />
      </mxCell>
    </object><object id="139811032689296" label="U([0.22194999999999998,0.3403))">
      <mxCell style="rounded=1;whiteSpace=wrap;html=1;" vertex="1" parent="1">
          <mxGeometry x="200" y="150" width="120" height="60" as="geometry" />
      </mxCell>
    </object><object id="139811032655088" label="⊕">
      <mxCell style="rounded=1;whiteSpace=wrap;html=1;" vertex="1" parent="1">
          <mxGeometry x="200" y="150" width="120" height="60" as="geometry" />
      </mxCell>
    </object><object id="139811032657104" label="U([12.02,15.695))">
      <mxCell style="rounded=1;whiteSpace=wrap;html=1;" vertex="1" parent="1">
          <mxGeometry x="200" y="150" width="120" height="60" as="geometry" />
      </mxCell>
    </object><object id="139811032655760" label="U([15.695,29.18))">
      <mxCell style="rounded=1;whiteSpace=wrap;html=1;" vertex="1" parent="1">
          <mxGeometry x="200" y="150" width="120" height="60" as="geometry" />
      </mxCell>
    </object><object id="139811033078560" label="U([29.18,32.089999999999996))">
      <mxCell style="rounded=1;whiteSpace=wrap;html=1;" vertex="1" parent="1">
          <mxGeometry x="200" y="150" width="120" height="60" as="geometry" />
      </mxCell>
    </object><object id="139811033079568" label="U([32.089999999999996,41.78])">
      <mxCell style="rounded=1;whiteSpace=wrap;html=1;" vertex="1" parent="1">
          <mxGeometry x="200" y="150" width="120" height="60" as="geometry" />
      </mxCell>
    </object><object id="139811033079664" label="⊗">
      <mxCell style="rounded=1;whiteSpace=wrap;html=1;" vertex="1" parent="1">
          <mxGeometry x="200" y="150" width="120" height="60" as="geometry" />
      </mxCell>
    </object><object id="139811033079520" label="⊕">
      <mxCell style="rounded=1;whiteSpace=wrap;html=1;" vertex="1" parent="1">
          <mxGeometry x="200" y="150" width="120" height="60" as="geometry" />
      </mxCell>
    </object><object id="139811032653936" label="U([16.94,34.985))">
      <mxCell style="rounded=1;whiteSpace=wrap;html=1;" vertex="1" parent="1">
          <mxGeometry x="200" y="150" width="120" height="60" as="geometry" />
      </mxCell>
    </object><object id="139811032657152" label="U([34.985,44.13))">
      <mxCell style="rounded=1;whiteSpace=wrap;html=1;" vertex="1" parent="1">
          <mxGeometry x="200" y="150" width="120" height="60" as="geometry" />
      </mxCell>
    </object><object id="139811032656864" label="U([44.13,77.11])">
      <mxCell style="rounded=1;whiteSpace=wrap;html=1;" vertex="1" parent="1">
          <mxGeometry x="200" y="150" width="120" height="60" as="geometry" />
      </mxCell>
    </object><object id="139811032655664" label="⊕">
      <mxCell style="rounded=1;whiteSpace=wrap;html=1;" vertex="1" parent="1">
          <mxGeometry x="200" y="150" width="120" height="60" as="geometry" />
      </mxCell>
    </object><object id="139811032615808" label="U([0.00466,0.029155))">
      <mxCell style="rounded=1;whiteSpace=wrap;html=1;" vertex="1" parent="1">
          <mxGeometry x="200" y="150" width="120" height="60" as="geometry" />
      </mxCell>
    </object><object id="139811032615520" label="U([0.029155,0.04831))">
      <mxCell style="rounded=1;whiteSpace=wrap;html=1;" vertex="1" parent="1">
          <mxGeometry x="200" y="150" width="120" height="60" as="geometry" />
      </mxCell>
    </object><object id="139811032615424" label="U([0.04831,0.1064])">
      <mxCell style="rounded=1;whiteSpace=wrap;html=1;" vertex="1" parent="1">
          <mxGeometry x="200" y="150" width="120" height="60" as="geometry" />
      </mxCell>
    </object><object id="139811032616816" label="⊕">
      <mxCell style="rounded=1;whiteSpace=wrap;html=1;" vertex="1" parent="1">
          <mxGeometry x="200" y="150" width="120" height="60" as="geometry" />
      </mxCell>
    </object><object id="139811032689152" label="U([0.0,0.007441))">
      <mxCell style="rounded=1;whiteSpace=wrap;html=1;" vertex="1" parent="1">
          <mxGeometry x="200" y="150" width="120" height="60" as="geometry" />
      </mxCell>
    </object><object id="139811032687376" label="U([0.007441,0.016245000000000002))">
      <mxCell style="rounded=1;whiteSpace=wrap;html=1;" vertex="1" parent="1">
          <mxGeometry x="200" y="150" width="120" height="60" as="geometry" />
      </mxCell>
    </object><object id="139811032688624" label="U([0.016245000000000002,0.020065))">
      <mxCell style="rounded=1;whiteSpace=wrap;html=1;" vertex="1" parent="1">
          <mxGeometry x="200" y="150" width="120" height="60" as="geometry" />
      </mxCell>
    </object><object id="139811032688672" label="U([0.020065,0.05279])">
      <mxCell style="rounded=1;whiteSpace=wrap;html=1;" vertex="1" parent="1">
          <mxGeometry x="200" y="150" width="120" height="60" as="geometry" />
      </mxCell>
    </object><object id="139811032690640" label="⊕">
      <mxCell style="rounded=1;whiteSpace=wrap;html=1;" vertex="1" parent="1">
          <mxGeometry x="200" y="150" width="120" height="60" as="geometry" />
      </mxCell>
    </object><object id="139811032322112" label="U([0.0,0.034269999999999995))">
      <mxCell style="rounded=1;whiteSpace=wrap;html=1;" vertex="1" parent="1">
          <mxGeometry x="200" y="150" width="120" height="60" as="geometry" />
      </mxCell>
    </object><object id="139811032322352" label="U([0.034269999999999995,0.058445))">
      <mxCell style="rounded=1;whiteSpace=wrap;html=1;" vertex="1" parent="1">
          <mxGeometry x="200" y="150" width="120" height="60" as="geometry" />
      </mxCell>
    </object><object id="139811032322544" label="U([0.058445,0.396])">
      <mxCell style="rounded=1;whiteSpace=wrap;html=1;" vertex="1" parent="1">
          <mxGeometry x="200" y="150" width="120" height="60" as="geometry" />
      </mxCell>
    </object><object id="139811032323600" label="⊕">
      <mxCell style="rounded=1;whiteSpace=wrap;html=1;" vertex="1" parent="1">
          <mxGeometry x="200" y="150" width="120" height="60" as="geometry" />
      </mxCell>
    </object><object id="139811032323312" label="U([0.0008948,0.005922))">
      <mxCell style="rounded=1;whiteSpace=wrap;html=1;" vertex="1" parent="1">
          <mxGeometry x="200" y="150" width="120" height="60" as="geometry" />
      </mxCell>
    </object><object id="139811032323216" label="U([0.005922,0.007804))">
      <mxCell style="rounded=1;whiteSpace=wrap;html=1;" vertex="1" parent="1">
          <mxGeometry x="200" y="150" width="120" height="60" as="geometry" />
      </mxCell>
    </object><object id="139811032323696" label="U([0.007804,0.02984])">
      <mxCell style="rounded=1;whiteSpace=wrap;html=1;" vertex="1" parent="1">
          <mxGeometry x="200" y="150" width="120" height="60" as="geometry" />
      </mxCell>
    </object><object id="139811032324992" label="Nominal('friendly', 'malignant')">
      <mxCell style="rounded=1;whiteSpace=wrap;html=1;" vertex="1" parent="1">
          <mxGeometry x="200" y="150" width="120" height="60" as="geometry" />
      </mxCell>
    </object><object id="139811032325520" label="⊕">
      <mxCell style="rounded=1;whiteSpace=wrap;html=1;" vertex="1" parent="1">
          <mxGeometry x="200" y="150" width="120" height="60" as="geometry" />
      </mxCell>
    </object><object id="139811032325712" label="U([178.8,668.6500000000001))">
      <mxCell style="rounded=1;whiteSpace=wrap;html=1;" vertex="1" parent="1">
          <mxGeometry x="200" y="150" width="120" height="60" as="geometry" />
      </mxCell>
    </object><object id="139811032325664" label="U([668.6500000000001,992.1])">
      <mxCell style="rounded=1;whiteSpace=wrap;html=1;" vertex="1" parent="1">
          <mxGeometry x="200" y="150" width="120" height="60" as="geometry" />
      </mxCell>
    </object><object id="139811032326000" label="⊕">
      <mxCell style="rounded=1;whiteSpace=wrap;html=1;" vertex="1" parent="1">
          <mxGeometry x="200" y="150" width="120" height="60" as="geometry" />
      </mxCell>
    </object><object id="139811032355552" label="U([0.02344,0.13035))">
      <mxCell style="rounded=1;whiteSpace=wrap;html=1;" vertex="1" parent="1">
          <mxGeometry x="200" y="150" width="120" height="60" as="geometry" />
      </mxCell>
    </object><object id="139811032355696" label="U([0.13035,0.2239])">
      <mxCell style="rounded=1;whiteSpace=wrap;html=1;" vertex="1" parent="1">
          <mxGeometry x="200" y="150" width="120" height="60" as="geometry" />
      </mxCell>
    </object><object id="139811032356608" label="⊕">
      <mxCell style="rounded=1;whiteSpace=wrap;html=1;" vertex="1" parent="1">
          <mxGeometry x="200" y="150" width="120" height="60" as="geometry" />
      </mxCell>
    </object><object id="139811032356752" label="U([0.0,0.04424))">
      <mxCell style="rounded=1;whiteSpace=wrap;html=1;" vertex="1" parent="1">
          <mxGeometry x="200" y="150" width="120" height="60" as="geometry" />
      </mxCell>
    </object><object id="139811032356896" label="U([0.04424,0.08534])">
      <mxCell style="rounded=1;whiteSpace=wrap;html=1;" vertex="1" parent="1">
          <mxGeometry x="200" y="150" width="120" height="60" as="geometry" />
      </mxCell>
    </object><object id="139811032357808" label="⊕">
      <mxCell style="rounded=1;whiteSpace=wrap;html=1;" vertex="1" parent="1">
          <mxGeometry x="200" y="150" width="120" height="60" as="geometry" />
      </mxCell>
    </object><object id="139811032357952" label="U([0.0,0.07275))">
      <mxCell style="rounded=1;whiteSpace=wrap;html=1;" vertex="1" parent="1">
          <mxGeometry x="200" y="150" width="120" height="60" as="geometry" />
      </mxCell>
    </object><object id="139811032358048" label="U([0.07275,0.1094))">
      <mxCell style="rounded=1;whiteSpace=wrap;html=1;" vertex="1" parent="1">
          <mxGeometry x="200" y="150" width="120" height="60" as="geometry" />
      </mxCell>
    </object><object id="139811032358240" label="U([0.1094,0.4108])">
      <mxCell style="rounded=1;whiteSpace=wrap;html=1;" vertex="1" parent="1">
          <mxGeometry x="200" y="150" width="120" height="60" as="geometry" />
      </mxCell>
    </object><object id="139811032357616" label="⊕">
      <mxCell style="rounded=1;whiteSpace=wrap;html=1;" vertex="1" parent="1">
          <mxGeometry x="200" y="150" width="120" height="60" as="geometry" />
      </mxCell>
    </object><object id="139811032357760" label="U([0.05185,0.07305))">
      <mxCell style="rounded=1;whiteSpace=wrap;html=1;" vertex="1" parent="1">
          <mxGeometry x="200" y="150" width="120" height="60" as="geometry" />
      </mxCell>
    </object><object id="139811032357232" label="U([0.07305,0.09502])">
      <mxCell style="rounded=1;whiteSpace=wrap;html=1;" vertex="1" parent="1">
          <mxGeometry x="200" y="150" width="120" height="60" as="geometry" />
      </mxCell>
    </object><object id="139811032356320" label="⊕">
      <mxCell style="rounded=1;whiteSpace=wrap;html=1;" vertex="1" parent="1">
          <mxGeometry x="200" y="150" width="120" height="60" as="geometry" />
      </mxCell>
    </object><object id="139811032355504" label="U([95.9,114.6])">
      <mxCell style="rounded=1;whiteSpace=wrap;html=1;" vertex="1" parent="1">
          <mxGeometry x="200" y="150" width="120" height="60" as="geometry" />
      </mxCell>
    </object><object id="139811032356416" label="U([47.92,59.43))">
      <mxCell style="rounded=1;whiteSpace=wrap;html=1;" vertex="1" parent="1">
          <mxGeometry x="200" y="150" width="120" height="60" as="geometry" />
      </mxCell>
    </object><object id="139811032326096" label="U([59.43,95.9))">
      <mxCell style="rounded=1;whiteSpace=wrap;html=1;" vertex="1" parent="1">
          <mxGeometry x="200" y="150" width="120" height="60" as="geometry" />
      </mxCell>
    </object><object id="139811032355120" label="⊕">
      <mxCell style="rounded=1;whiteSpace=wrap;html=1;" vertex="1" parent="1">
          <mxGeometry x="200" y="150" width="120" height="60" as="geometry" />
      </mxCell>
    </object><object id="139811032325136" label="U([7.729,14.75))">
      <mxCell style="rounded=1;whiteSpace=wrap;html=1;" vertex="1" parent="1">
          <mxGeometry x="200" y="150" width="120" height="60" as="geometry" />
      </mxCell>
    </object><object id="139811032323552" label="U([14.75,17.85])">
      <mxCell style="rounded=1;whiteSpace=wrap;html=1;" vertex="1" parent="1">
          <mxGeometry x="200" y="150" width="120" height="60" as="geometry" />
      </mxCell>
    </object><object id="139811032322976" label="⊕">
      <mxCell style="rounded=1;whiteSpace=wrap;html=1;" vertex="1" parent="1">
          <mxGeometry x="200" y="150" width="120" height="60" as="geometry" />
      </mxCell>
    </object><object id="139811032689968" label="U([0.11549999999999999,0.1634])">
      <mxCell style="rounded=1;whiteSpace=wrap;html=1;" vertex="1" parent="1">
          <mxGeometry x="200" y="150" width="120" height="60" as="geometry" />
      </mxCell>
    </object><object id="139811032687664" label="U([0.05263,0.075))">
      <mxCell style="rounded=1;whiteSpace=wrap;html=1;" vertex="1" parent="1">
          <mxGeometry x="200" y="150" width="120" height="60" as="geometry" />
      </mxCell>
    </object><object id="139811032686944" label="U([0.075,0.11549999999999999))">
      <mxCell style="rounded=1;whiteSpace=wrap;html=1;" vertex="1" parent="1">
          <mxGeometry x="200" y="150" width="120" height="60" as="geometry" />
      </mxCell>
    </object><object id="139811032613840" label="⊕">
      <mxCell style="rounded=1;whiteSpace=wrap;html=1;" vertex="1" parent="1">
          <mxGeometry x="200" y="150" width="120" height="60" as="geometry" />
      </mxCell>
    </object><object id="139811032599280" label="U([0.2118,0.2743])">
      <mxCell style="rounded=1;whiteSpace=wrap;html=1;" vertex="1" parent="1">
          <mxGeometry x="200" y="150" width="120" height="60" as="geometry" />
      </mxCell>
    </object><object id="139811032656000" label="U([0.106,0.14905000000000002))">
      <mxCell style="rounded=1;whiteSpace=wrap;html=1;" vertex="1" parent="1">
          <mxGeometry x="200" y="150" width="120" height="60" as="geometry" />
      </mxCell>
    </object><object id="139811033053024" label="U([0.14905000000000002,0.2118))">
      <mxCell style="rounded=1;whiteSpace=wrap;html=1;" vertex="1" parent="1">
          <mxGeometry x="200" y="150" width="120" height="60" as="geometry" />
      </mxCell>
    </object><object id="139811032657248" label="⊕">
      <mxCell style="rounded=1;whiteSpace=wrap;html=1;" vertex="1" parent="1">
          <mxGeometry x="200" y="150" width="120" height="60" as="geometry" />
      </mxCell>
    </object><object id="139811032384368" label="U([22.045,30.72])">
      <mxCell style="rounded=1;whiteSpace=wrap;html=1;" vertex="1" parent="1">
          <mxGeometry x="200" y="150" width="120" height="60" as="geometry" />
      </mxCell>
    </object><object id="139811032384320" label="U([10.94,13.85))">
      <mxCell style="rounded=1;whiteSpace=wrap;html=1;" vertex="1" parent="1">
          <mxGeometry x="200" y="150" width="120" height="60" as="geometry" />
      </mxCell>
    </object><object id="139811032384464" label="U([13.85,22.045))">
      <mxCell style="rounded=1;whiteSpace=wrap;html=1;" vertex="1" parent="1">
          <mxGeometry x="200" y="150" width="120" height="60" as="geometry" />
      </mxCell>
    </object><object id="139811032386096" label="⊕">
      <mxCell style="rounded=1;whiteSpace=wrap;html=1;" vertex="1" parent="1">
          <mxGeometry x="200" y="150" width="120" height="60" as="geometry" />
      </mxCell>
    </object><object id="139811032385712" label="U([1.597,2.0484999999999998))">
      <mxCell style="rounded=1;whiteSpace=wrap;html=1;" vertex="1" parent="1">
          <mxGeometry x="200" y="150" width="120" height="60" as="geometry" />
      </mxCell>
    </object><object id="139811032385856" label="U([2.0484999999999998,2.886))">
      <mxCell style="rounded=1;whiteSpace=wrap;html=1;" vertex="1" parent="1">
          <mxGeometry x="200" y="150" width="120" height="60" as="geometry" />
      </mxCell>
    </object><object id="139811032385808" label="U([2.886,3.3209999999999997))">
      <mxCell style="rounded=1;whiteSpace=wrap;html=1;" vertex="1" parent="1">
          <mxGeometry x="200" y="150" width="120" height="60" as="geometry" />
      </mxCell>
    </object><object id="139811032385760" label="U([3.3209999999999997,3.87))">
      <mxCell style="rounded=1;whiteSpace=wrap;html=1;" vertex="1" parent="1">
          <mxGeometry x="200" y="150" width="120" height="60" as="geometry" />
      </mxCell>
    </object><object id="139811032386672" label="U([3.87,5.118])">
      <mxCell style="rounded=1;whiteSpace=wrap;html=1;" vertex="1" parent="1">
          <mxGeometry x="200" y="150" width="120" height="60" as="geometry" />
      </mxCell>
    </object><object id="139811032387008" label="⊕">
      <mxCell style="rounded=1;whiteSpace=wrap;html=1;" vertex="1" parent="1">
          <mxGeometry x="200" y="150" width="120" height="60" as="geometry" />
      </mxCell>
    </object><object id="139811032420416" label="U([0.3028,0.4133))">
      <mxCell style="rounded=1;whiteSpace=wrap;html=1;" vertex="1" parent="1">
          <mxGeometry x="200" y="150" width="120" height="60" as="geometry" />
      </mxCell>
    </object><object id="139811032420512" label="U([0.5378000000000001,0.8811])">
      <mxCell style="rounded=1;whiteSpace=wrap;html=1;" vertex="1" parent="1">
          <mxGeometry x="200" y="150" width="120" height="60" as="geometry" />
      </mxCell>
    </object><object id="139811032420800" label="U([0.4133,0.4497))">
      <mxCell style="rounded=1;whiteSpace=wrap;html=1;" vertex="1" parent="1">
          <mxGeometry x="200" y="150" width="120" height="60" as="geometry" />
      </mxCell>
    </object><object id="139811032420752" label="U([0.4497,0.5378000000000001))">
      <mxCell style="rounded=1;whiteSpace=wrap;html=1;" vertex="1" parent="1">
          <mxGeometry x="200" y="150" width="120" height="60" as="geometry" />
      </mxCell>
    </object><object id="139811032422144" label="⊕">
      <mxCell style="rounded=1;whiteSpace=wrap;html=1;" vertex="1" parent="1">
          <mxGeometry x="200" y="150" width="120" height="60" as="geometry" />
      </mxCell>
    </object><object id="139811032421904" label="U([0.001713,0.0045260000000000005))">
      <mxCell style="rounded=1;whiteSpace=wrap;html=1;" vertex="1" parent="1">
          <mxGeometry x="200" y="150" width="120" height="60" as="geometry" />
      </mxCell>
    </object><object id="139811032422192" label="U([0.01044,0.01449))">
      <mxCell style="rounded=1;whiteSpace=wrap;html=1;" vertex="1" parent="1">
          <mxGeometry x="200" y="150" width="120" height="60" as="geometry" />
      </mxCell>
    </object><object id="139811032422288" label="U([0.01449,0.02075])">
      <mxCell style="rounded=1;whiteSpace=wrap;html=1;" vertex="1" parent="1">
          <mxGeometry x="200" y="150" width="120" height="60" as="geometry" />
      </mxCell>
    </object><object id="139811032422240" label="U([0.0045260000000000005,0.0072115))">
      <mxCell style="rounded=1;whiteSpace=wrap;html=1;" vertex="1" parent="1">
          <mxGeometry x="200" y="150" width="120" height="60" as="geometry" />
      </mxCell>
    </object><object id="139811032422912" label="U([0.0072115,0.0078049999999999994))">
      <mxCell style="rounded=1;whiteSpace=wrap;html=1;" vertex="1" parent="1">
          <mxGeometry x="200" y="150" width="120" height="60" as="geometry" />
      </mxCell>
    </object><object id="139811032386240" label="U([0.0078049999999999994,0.009476))">
      <mxCell style="rounded=1;whiteSpace=wrap;html=1;" vertex="1" parent="1">
          <mxGeometry x="200" y="150" width="120" height="60" as="geometry" />
      </mxCell>
    </object><object id="139811032387152" label="U([0.009476,0.01044))">
      <mxCell style="rounded=1;whiteSpace=wrap;html=1;" vertex="1" parent="1">
          <mxGeometry x="200" y="150" width="120" height="60" as="geometry" />
      </mxCell>
    </object><object id="139811032383840" label="⊕">
      <mxCell style="rounded=1;whiteSpace=wrap;html=1;" vertex="1" parent="1">
          <mxGeometry x="200" y="150" width="120" height="60" as="geometry" />
      </mxCell>
    </object><object id="139811032385424" label="U([0.01055,0.035250000000000004))">
      <mxCell style="rounded=1;whiteSpace=wrap;html=1;" vertex="1" parent="1">
          <mxGeometry x="200" y="150" width="120" height="60" as="geometry" />
      </mxCell>
    </object><object id="139811032385376" label="U([0.035250000000000004,0.06146])">
      <mxCell style="rounded=1;whiteSpace=wrap;html=1;" vertex="1" parent="1">
          <mxGeometry x="200" y="150" width="120" height="60" as="geometry" />
      </mxCell>
    </object><object id="139811032615856" label="⊕">
      <mxCell style="rounded=1;whiteSpace=wrap;html=1;" vertex="1" parent="1">
          <mxGeometry x="200" y="150" width="120" height="60" as="geometry" />
      </mxCell>
    </object><object id="139811032689776" label="U([0.3981,1.9245))">
      <mxCell style="rounded=1;whiteSpace=wrap;html=1;" vertex="1" parent="1">
          <mxGeometry x="200" y="150" width="120" height="60" as="geometry" />
      </mxCell>
    </object><object id="139811032322880" label="U([1.9245,2.5605))">
      <mxCell style="rounded=1;whiteSpace=wrap;html=1;" vertex="1" parent="1">
          <mxGeometry x="200" y="150" width="120" height="60" as="geometry" />
      </mxCell>
    </object><object id="139811032324416" label="U([2.5605,4.885])">
      <mxCell style="rounded=1;whiteSpace=wrap;html=1;" vertex="1" parent="1">
          <mxGeometry x="200" y="150" width="120" height="60" as="geometry" />
      </mxCell>
    </object><object id="139811032325472" label="⊕">
      <mxCell style="rounded=1;whiteSpace=wrap;html=1;" vertex="1" parent="1">
          <mxGeometry x="200" y="150" width="120" height="60" as="geometry" />
      </mxCell>
    </object><object id="139811032356512" label="U([240.1,835.7))">
      <mxCell style="rounded=1;whiteSpace=wrap;html=1;" vertex="1" parent="1">
          <mxGeometry x="200" y="150" width="120" height="60" as="geometry" />
      </mxCell>
    </object><object id="139811032356272" label="U([835.7,1210.0])">
      <mxCell style="rounded=1;whiteSpace=wrap;html=1;" vertex="1" parent="1">
          <mxGeometry x="200" y="150" width="120" height="60" as="geometry" />
      </mxCell>
    </object><object id="139811032356560" label="⊕">
      <mxCell style="rounded=1;whiteSpace=wrap;html=1;" vertex="1" parent="1">
          <mxGeometry x="200" y="150" width="120" height="60" as="geometry" />
      </mxCell>
    </object><object id="139811032422048" label="U([0.02729,0.2558))">
      <mxCell style="rounded=1;whiteSpace=wrap;html=1;" vertex="1" parent="1">
          <mxGeometry x="200" y="150" width="120" height="60" as="geometry" />
      </mxCell>
    </object><object id="139811032421952" label="U([0.2558,0.30425))">
      <mxCell style="rounded=1;whiteSpace=wrap;html=1;" vertex="1" parent="1">
          <mxGeometry x="200" y="150" width="120" height="60" as="geometry" />
      </mxCell>
    </object><object id="139811032421568" label="U([0.30425,0.4365])">
      <mxCell style="rounded=1;whiteSpace=wrap;html=1;" vertex="1" parent="1">
          <mxGeometry x="200" y="150" width="120" height="60" as="geometry" />
      </mxCell>
    </object><object id="139811032424256" label="⊕">
      <mxCell style="rounded=1;whiteSpace=wrap;html=1;" vertex="1" parent="1">
          <mxGeometry x="200" y="150" width="120" height="60" as="geometry" />
      </mxCell>
    </object><object id="139811032423968" label="U([0.0,0.11065))">
      <mxCell style="rounded=1;whiteSpace=wrap;html=1;" vertex="1" parent="1">
          <mxGeometry x="200" y="150" width="120" height="60" as="geometry" />
      </mxCell>
    </object><object id="139811032423920" label="U([0.11065,0.175])">
      <mxCell style="rounded=1;whiteSpace=wrap;html=1;" vertex="1" parent="1">
          <mxGeometry x="200" y="150" width="120" height="60" as="geometry" />
      </mxCell>
    </object><object id="139811032424208" label="⊕">
      <mxCell style="rounded=1;whiteSpace=wrap;html=1;" vertex="1" parent="1">
          <mxGeometry x="200" y="150" width="120" height="60" as="geometry" />
      </mxCell>
    </object><object id="139811032445808" label="U([0.0,0.1958))">
      <mxCell style="rounded=1;whiteSpace=wrap;html=1;" vertex="1" parent="1">
          <mxGeometry x="200" y="150" width="120" height="60" as="geometry" />
      </mxCell>
    </object><object id="139811032445904" label="U([0.1958,0.315))">
      <mxCell style="rounded=1;whiteSpace=wrap;html=1;" vertex="1" parent="1">
          <mxGeometry x="200" y="150" width="120" height="60" as="geometry" />
      </mxCell>
    </object><object id="139811032446096" label="U([0.315,1.252])">
      <mxCell style="rounded=1;whiteSpace=wrap;html=1;" vertex="1" parent="1">
          <mxGeometry x="200" y="150" width="120" height="60" as="geometry" />
      </mxCell>
    </object><object id="139811032447392" label="⊕">
      <mxCell style="rounded=1;whiteSpace=wrap;html=1;" vertex="1" parent="1">
          <mxGeometry x="200" y="150" width="120" height="60" as="geometry" />
      </mxCell>
    </object><object id="139811032447104" label="U([0.05521,0.09260499999999999))">
      <mxCell style="rounded=1;whiteSpace=wrap;html=1;" vertex="1" parent="1">
          <mxGeometry x="200" y="150" width="120" height="60" as="geometry" />
      </mxCell>
    </object><object id="139811032447056" label="U([0.09260499999999999,0.1259])">
      <mxCell style="rounded=1;whiteSpace=wrap;html=1;" vertex="1" parent="1">
          <mxGeometry x="200" y="150" width="120" height="60" as="geometry" />
      </mxCell>
    </object><object id="139811032448256" label="⊕">
      <mxCell style="rounded=1;whiteSpace=wrap;html=1;" vertex="1" parent="1">
          <mxGeometry x="200" y="150" width="120" height="60" as="geometry" />
      </mxCell>
    </object><object id="139811032448400" label="U([56.65,104.45))">
      <mxCell style="rounded=1;whiteSpace=wrap;html=1;" vertex="1" parent="1">
          <mxGeometry x="200" y="150" width="120" height="60" as="geometry" />
      </mxCell>
    </object><object id="139811032448544" label="U([104.45,127.1])">
      <mxCell style="rounded=1;whiteSpace=wrap;html=1;" vertex="1" parent="1">
          <mxGeometry x="200" y="150" width="120" height="60" as="geometry" />
      </mxCell>
    </object><object id="139811032448784" label="⊕">
      <mxCell style="rounded=1;whiteSpace=wrap;html=1;" vertex="1" parent="1">
          <mxGeometry x="200" y="150" width="120" height="60" as="geometry" />
      </mxCell>
    </object><object id="139811032478336" label="U([8.952,16.455))">
      <mxCell style="rounded=1;whiteSpace=wrap;html=1;" vertex="1" parent="1">
          <mxGeometry x="200" y="150" width="120" height="60" as="geometry" />
      </mxCell>
    </object><object id="139811032478480" label="U([16.455,19.82])">
      <mxCell style="rounded=1;whiteSpace=wrap;html=1;" vertex="1" parent="1">
          <mxGeometry x="200" y="150" width="120" height="60" as="geometry" />
      </mxCell>
    </object><object id="139811032479392" label="⊕">
      <mxCell style="rounded=1;whiteSpace=wrap;html=1;" vertex="1" parent="1">
          <mxGeometry x="200" y="150" width="120" height="60" as="geometry" />
      </mxCell>
    </object><object id="139811032479680" label="U([0.14784999999999998,0.1902])">
      <mxCell style="rounded=1;whiteSpace=wrap;html=1;" vertex="1" parent="1">
          <mxGeometry x="200" y="150" width="120" height="60" as="geometry" />
      </mxCell>
    </object><object id="139811032479632" label="U([0.07117,0.09395))">
      <mxCell style="rounded=1;whiteSpace=wrap;html=1;" vertex="1" parent="1">
          <mxGeometry x="200" y="150" width="120" height="60" as="geometry" />
      </mxCell>
    </object><object id="139811032479584" label="U([0.09395,0.14784999999999998))">
      <mxCell style="rounded=1;whiteSpace=wrap;html=1;" vertex="1" parent="1">
          <mxGeometry x="200" y="150" width="120" height="60" as="geometry" />
      </mxCell>
    </object><object id="139811032448928" label="⊕">
      <mxCell style="rounded=1;whiteSpace=wrap;html=1;" vertex="1" parent="1">
          <mxGeometry x="200" y="150" width="120" height="60" as="geometry" />
      </mxCell>
    </object><object id="139811032448160" label="U([0.31710000000000005,0.4228])">
      <mxCell style="rounded=1;whiteSpace=wrap;html=1;" vertex="1" parent="1">
          <mxGeometry x="200" y="150" width="120" height="60" as="geometry" />
      </mxCell>
    </object><object id="139811032448352" label="U([0.1566,0.21585))">
      <mxCell style="rounded=1;whiteSpace=wrap;html=1;" vertex="1" parent="1">
          <mxGeometry x="200" y="150" width="120" height="60" as="geometry" />
      </mxCell>
    </object><object id="139811032447728" label="U([0.21585,0.31710000000000005))">
      <mxCell style="rounded=1;whiteSpace=wrap;html=1;" vertex="1" parent="1">
          <mxGeometry x="200" y="150" width="120" height="60" as="geometry" />
      </mxCell>
    </object><object id="139811032445184" label="⊕">
      <mxCell style="rounded=1;whiteSpace=wrap;html=1;" vertex="1" parent="1">
          <mxGeometry x="200" y="150" width="120" height="60" as="geometry" />
      </mxCell>
    </object><object id="139811032446912" label="U([29.36,41.61])">
      <mxCell style="rounded=1;whiteSpace=wrap;html=1;" vertex="1" parent="1">
          <mxGeometry x="200" y="150" width="120" height="60" as="geometry" />
      </mxCell>
    </object><object id="139811032445616" label="U([12.49,16.875))">
      <mxCell style="rounded=1;whiteSpace=wrap;html=1;" vertex="1" parent="1">
          <mxGeometry x="200" y="150" width="120" height="60" as="geometry" />
      </mxCell>
    </object><object id="139811032446768" label="U([16.875,29.36))">
      <mxCell style="rounded=1;whiteSpace=wrap;html=1;" vertex="1" parent="1">
          <mxGeometry x="200" y="150" width="120" height="60" as="geometry" />
      </mxCell>
    </object></root>
      </mxGraphModel>
    </diagram></mxfile>